<svg id="Layer_1" data-name="Layer 1" xmlns="http://www.w3.org/2000/svg" width="8in" height="9.4in" viewBox="0 0 572.7 676.7"><title>esports-owl</title><path d="M450.3,145.8c9.6-38,11.7-76.7,14.2-115.9,9.8,7.5,19.1,14.8,28.5,21.8a139.5,139.5,0,0,1,44.4,54.7,170.2,170.2,0,0,1,14.4,56.6c3.8,43.8-4.4,85.9-18.3,127.1a9.5,9.5,0,0,0,.8,8.3c15.1,28,23.7,57.7,22.2,89.8-1,22.8-6.8,44.4-17.9,64.2-5.4,9.6-5.8,19.1-4.3,29.2,3.2,20.9,10.4,40.8,15.7,61.2l1.4,5.6c-1.4.6-2.2-.4-3-.8l-37-18.8a81.3,81.3,0,0,1-19.5-13.4c-1.6-1.5-2.5-1.5-4.1-.1a267.1,267.1,0,0,1-35.5,26.4,5.5,5.5,0,0,0-2.6,2.7c-6.5,17.3-9.6,35-5,53.3a51,51,0,0,0,19.9,29.7c12.6,9.1,24.8,18.8,37.4,28.4-4.1,1.8-8.1,1.3-11.9,1.6q-30.4,2.8-60.8,5a547.5,547.5,0,0,1-63.4.8c-63-2.8-123.6-15-180-44.3-31.8-16.5-60.1-37.8-84.1-64.5l-2.9-3.1-2.3,50.6h-.8L78.4,572c-12.9-22.3-26.5-44.2-37-67.8-14.3-31.9-24.3-65-28.2-99.8-5.1-44.8-.8-88.7,14.1-131.4a244,244,0,0,1,18.6-41.8,10.7,10.7,0,0,0,1.3-8.1,355.1,355.1,0,0,1-7.4-77.6c.4-27.1,4.3-53.7,15.2-78.9a120.6,120.6,0,0,1,44.2-53A78.3,78.3,0,0,0,107,7.9c2.3-2,3.4-1.5,5,.9q17.4,25.4,36.2,49.6c16.6,21.3,33.4,42.4,52.9,61.2,2.2,2.1,3.9,2.6,6.8,1.7,26.1-7.9,52.6-13.7,79.8-16.1,38.9-3.4,77.2-.7,114,13.4a182.1,182.1,0,0,1,46.4,25.7Z" fill="#fab937"/><path d="M534.2,359.5c-3.7-21.7-12-41.7-23.3-60.4a6.1,6.1,0,0,1-.5-6,337.5,337.5,0,0,0,20.2-83.8,198.6,198.6,0,0,0-2.2-63.8c-5.8-28.5-18.8-53.1-41.4-72-1.2-1-2.3-2.5-4.3-2.6-1.4,11.7-2.6,23.4-4.1,35.1-2.5,19.9-6,39.6-12.5,58.7a58.9,58.9,0,0,1-7.5,15.3c-1.2,1.6-2,1.9-3.5.1-17.1-20.6-39.2-34-64.1-43-36.8-13.3-74.7-14.7-113.1-9.8a376.7,376.7,0,0,0-72.5,16.7c-4.5,1.5-7.5.9-11-2.2-14.6-12.8-27.5-27.1-39.9-42C138,79.7,122.3,59,107.2,37.9c-1.7-2.4-2.7-2.7-5.1-.8A97.2,97.2,0,0,0,86.3,53.6c-16.1,21.6-22.5,46.7-24.8,72.9-3,34.5.4,68.6,7.9,102.3a5.1,5.1,0,0,1-.7,4.3c-11.1,17.6-19.1,36.7-25.1,56.6-12.8,41.7-15,84.2-7.7,127.2,6.8,39.9,21.3,76.9,41.4,111.8.3.6.4,1.6,1.6,1.4,1.3-11.1,1.6-22.5,7.6-32.7,1.7,1.1,2,2.6,2.6,3.8a182.9,182.9,0,0,0,20.6,30.6c24.5,30.1,54.8,53.1,89.4,70.5,49.8,25.1,103.2,36.4,158.5,39.7a595.6,595.6,0,0,0,88.6-1.6c0-1.6-1.1-2.4-2-3.2-10.1-9.9-16.3-22-19.9-35.5-1.1-4.4-1.7-8.9-2.5-13.3-1.1-19.9,2.9-38.8,10.6-57a8.3,8.3,0,0,1,3.6-4.3,253.5,253.5,0,0,0,55.4-44c.8-.9,1.3-2.3,2.9-2.3.7,10.4,14.5,24.5,24.5,27.6-2-9.4-4.8-18.5-5.6-28-1.1-12.3-1.4-24.6,6-35.5a9.3,9.3,0,0,0,2-4.5,19,19,0,0,0,1.5-2.3C534.6,413.1,538.8,386.9,534.2,359.5ZM360.4,328.6c-25.2-5-47-16.8-66.3-33.4-12.6-10.9-25.8-20.9-41-27.9s-29.7-9.8-45.4-7.1c-22.9,4-38.4,18.4-49.5,38A188.7,188.7,0,0,0,141,341.2c-4.9,17.8-7,35.9-4.9,54.2a105.7,105.7,0,0,0,26.4,59.1,100.4,100.4,0,0,0,13.9,13c.9.7,2,1.6,3.1.8s.4-2.2-.1-3.2c-1.7-3.7-3.7-7.2-5.3-10.8-6.9-15.3-12.5-31-15.3-47.6a110.4,110.4,0,0,1-.5-35.2c4.1-26.5,19.9-44.1,43.4-55.5,3.6-1.8,3.8-1.5,4.2,1.9a110,110,0,0,0,10,35c6.4,13.3,15.5,24.2,28.3,31.8,17.6,10.5,36.9,12.2,56.8,10.5a171.7,171.7,0,0,0,38.7-8.2c2.5-.8,3.4-.4,3.3,2.6-.3,9.2-2.3,18-4.8,26.7a126.5,126.5,0,0,1-5,12.8,46.1,46.1,0,0,1-2.5,5c-9.1,17-21.9,30.6-37.3,42a165.8,165.8,0,0,1-33.4,18.8c-1.4.6-3.1.8-3.6,2.6a1.8,1.8,0,0,0,1.2,1.2,11.6,11.6,0,0,0,4.6.1,280.7,280.7,0,0,0,37.3-7.4c22.4-6.2,43.8-14.5,60.4-31.8,1.8-2.2,4-2.5,6.6-2,9.2,1.6,18.3,3.2,27.5,4.6a6.1,6.1,0,0,1,5.6,5c2.4,9.1,5.4,18,7.9,27.1,1,3.9,2.2,7.7,3.5,11.5a10.8,10.8,0,0,1-.6,8.5,175.7,175.7,0,0,0-15.4,59.3c-.1,1.4-.3,2.9,1.1,3.8l-.8.6a11.4,11.4,0,0,0-.4,4.6c.4,10.1,1.4,20,4.6,29.6a515.1,515.1,0,0,1-59.3-2.1,359.1,359.1,0,0,1-83.1-17.8c-43.1-14.9-80.2-38.7-110.2-73.3A256.4,256.4,0,0,1,104.5,450c-9-21.3-14.8-43.4-19-66.1-2.6-13.8-3.8-27.7-2.3-41.8a142.1,142.1,0,0,1,18.4-56.6c14.5-25.2,34.2-45.8,56.8-63.9,3.9-3.2,8.1-6.1,12-9.3.9-.7,2.1-1.5,1.6-2.8s-1.8-1.3-3-1.4l-9.7-1c-16.2-1.5-32.3-2-48.4.8-4.5.8-4.8.6-5.9-3.8-5-20-6.9-40.3-7.7-60.8-.5-11.3,1-22.5,2.6-33.7a154.7,154.7,0,0,1,5.6-24.1c2.1,3.4,4,6.4,6.1,9.2,15.4,20.8,33.2,39.4,52.6,56.6a379.3,379.3,0,0,0,45.6,35c5.1,3.3,10.4,6.4,16.4,8,17.6,4.8,34.8,10.4,51.4,18,22.7,10.4,43.9,22.8,61.4,41.1,11,11.5,19.1,24.5,23.4,39.8.4,1.5.5,3.1,2,4.1s1.4-1.4,1.6-2.5a21.5,21.5,0,0,0-.6-6.3c-.2-1.3-.4-2.6-.7-3.8-5-21.5-16.2-39.5-31.2-55.2-19.5-20.5-43.1-35.1-68.7-46.8-4.5-2.1-9.3-3.7-14.1-6.4a174.4,174.4,0,0,1,26.6-10.1c23-6.7,46.4-9.7,70.3-7.2,31.5,3.3,59.3,15.3,83.7,35.3,2.4,1.9,2.4,3.1.2,5.1a71.5,71.5,0,0,0-13.2,15.8c-13.9,22-20.4,46.3-21.7,72.2,0,1,0,2.1,0,3.1s-.4,3.5,1.5,4.6c2.3-1.2,2.4-3.6,3-5.6,6.2-18.7,14.2-36.5,25.1-52.9,5.3-8,11.6-15.1,20-20.4,26.1-16.5,41.9-40.4,48.4-70.4,2.6-12.2,3.8-24.5,2.1-37a81.3,81.3,0,0,1,6.3,10.7,138,138,0,0,1,7.5,20.4c4.8,17.7,5.1,35.8,4.2,54l.6.7c-1.3.8-.9,2.3-1.1,3.5-2.2,13.7-3.5,27.5-7.1,41-7.8,28.8-23.6,51.9-48.7,68.4-9.5,6.2-20.1,10.2-30.5,14.6C406,331.2,383.5,333.2,360.4,328.6ZM504.8,428.8a165.5,165.5,0,0,1-24.5,32.4c-.8.8-2.2,1.5-1.8,2.9h-.5c-1.6.5-2.6,1.7-3.7,2.8a125.6,125.6,0,0,1-10.8,10c-9.5,7.7-19.3,14.9-31.5,18.8,5.8-10.9,8.9-22.4,11.3-34.1.9-4.6.8-9.3,1.9-13.8.4-12.5.8-24.9-1.6-37.3-.8-4.5-1.2-9.1-2.3-13.6s-1.5-6.6-2.3-9.8-1.1-4.5,3.4-4.2c15.4,1.1,27-6,33-20.2,2.8-6.6,4-13.6,5-20.7-.9-5.3.8-9.5,5.1-12.8a25,25,0,0,0,4.6-4.6c2-2.7,3.9-2.3,6-.2l1.5,1.7c1,1.4,2.3,2.5,3.4,3.7q21.9,24.8,18.2,57.7c-1.5,12.9-6.2,24.8-11.7,36.4a6.4,6.4,0,0,0-.6,2.3h0C505.6,426.5,505.4,427.9,504.8,428.8Z" fill="#070707"/><path d="M408.6,494.1c1.5,4.9,3,9.8,4.7,14.6.6,1.7-.4,3-1,4.4a176.4,176.4,0,0,0-15.9,60.5c-.1,1.3,0,2.6,0,3.9-.7,12,1.2,23.7,4.6,35.6-11.6.3-22.9.4-34.3-.1a433.5,433.5,0,0,1-49-4.7c-52.3-8.3-100.7-26-142.2-60s-66.7-75.9-81.9-125.6c-6-19.6-10.6-39.6-11.8-60.1-1.5-24.7,3.9-48.1,15.1-70.1,12.3-24.2,29.8-44.2,49.9-62.1,7.3-6.5,14.9-12.5,22.7-18.3l2.9-2.4c-5.7-.6-10.6-1.3-15.5-1.7-16.3-1-32.6-1.8-48.8,1.8-2,.5-2.7-.1-3.2-2.1-6.7-28.1-10-56.6-7.5-85.5,1.1-13.1,3.3-26.2,8-38.9a203.2,203.2,0,0,0,11.8,17c26.3,33.4,57.5,61.4,92.8,85.1,10.3,6.9,22,9.3,33.4,12.9,29.5,9.5,57.5,21.8,82,41.2,17.5,13.9,31.5,30.4,37.7,52.4.5,1.7.8,3.5,1.3,5.3,2.2-.1.8-1.5.8-2.4l-.7-6.2c.7-2.2-.4-4.3-.2-6.5s.4-3.8,3.2-2.7,1.8-.8,2.1-1.8c1.3-5.8,2.7-11.6,4-17.4a20.7,20.7,0,0,1,.5-2.3c.5-1.4.6-3.5,2.5-3.4s1.8,2,2.1,3.3c1.8,7.5,3.5,15.1,5.4,23.3.8-2,1.2-3.6,1.9-5s.8-1.7,1.9-1.7,1.5,1,1.7,1.9a72.3,72.3,0,0,1,2.8,12.3c.3-.4.3-1.1.6-1.7s.9-4.5,3.2-4.3.8,3,1.6,4.4v3c.1,1.6-1.5,3.4.8,4.7,7.4-22.8,16.6-44.8,30.9-64.2a63.5,63.5,0,0,1,17-15.7c26.4-16.9,41.8-41.3,47.9-71.8a132.2,132.2,0,0,0,1.7-37.1c18.5,26.9,22,57.1,19.8,88.6-2,14.7-3.4,29.5-7.3,43.9-10.8,40.4-35.7,67.9-75.1,82.5-10.8,4-21.4,8.3-32.9,9.9-27.1,3.9-52.5-1.6-76.5-14.1a167.5,167.5,0,0,1-34-23.7c-15.9-14.1-33.3-25.6-54.2-30.6-27.1-6.5-49.4,2-67.4,22.9-9.3,10.8-14.7,23.6-19.8,36.7-7,17.9-11.6,36.4-12.1,55.8-.9,37.4,13.4,67.6,42.9,91,.7-1.5-.4-2.3-.8-3.2a208.9,208.9,0,0,1-20.4-56.2,18.4,18.4,0,0,1-.2-2.3c2-.3,2.9,1.4,4.1,2.5,3.2,3,6,6.3,9.7,9.3,1.9-4.6,3.2-9.1,4.6-13.5s3-8.6,4.6-12.8c.4-1.1.8-2.5,2.1-2.6s1.9,1.6,2.2,2.8c1.6,7.2,3.2,14.4,4.7,21.6l3.8,17.5c.2,1.1.1,2.7,1.4,3s1.9-1.1,2.7-1.9c3.7-3.6,7.3-7.4,11-10.9,1.2-1.1,2.3-2.7,4.3-1.7a4.2,4.2,0,0,1,1,3.2c0,11.2.2,22.4-.1,33.5,7.6-11.3,14.9-22.6,22.4-34a12.7,12.7,0,0,1,2.4-3c1-.8,1.9-.9,2.4.5.7,10.8.1,21.7.3,32.5.1,3.7-.5,7.5.3,11.1,5-3.9,9-8.9,13.7-13.2,1.4-1.3,2.6-3.6,4.7-2.7s1.3,3.4,1.3,5.3c.2,5-.2,10,.2,15,1.6.3,2.4-.8,3.3-1.4,10.9-8.1,22-16.1,33-24.1l1.3-.9c3-1.9,4.1-1.4,4.3,2.3s-.1,6.5.2,10.3a57.8,57.8,0,0,0,6.6-5.1l16.7-13.3c1.3-1,2.4-2.4,4.4-1.9-6.6,13.7-16.4,25-27.8,35-13.9,12.2-29.9,21.2-47,28.1-.4,1,0,1.1.8.8,27.1-2.9,53.4-8.9,77.9-21.4A92.5,92.5,0,0,0,359.4,459c1.5-.6,2.8.1,4.1.6,8.1,3.5,16.3,6.6,24.5,9.8a7.9,7.9,0,0,1,3.6,2.2c5.2,6.4,10.4,12.9,15.5,19.4C407.7,492,407.9,493.2,408.6,494.1Z" fill="#e2e1e1"/><path d="M397.5,287c-1.3-1-1.1-2.7-2-4.3-1.3,2.6-1.9,5.3-3.8,7.7L388,274.9h-.9l-3,8.5h-.8l-6.8-28.7h-1.1l-6.1,26.8c-.8.3-1.1-.3-1.6-.7s-1.1-1.7-2.2-1.2-.5,1.6-.6,2.4.7,4.4-.6,6.4c-4.2-22.5-15.6-41.2-31-57.5-22.4-23.8-50.2-39.6-80-52.2l-4.6-2c-.1,0-.1-.2-.1-.3,53.5-27,130.6-30.6,187,20.4-7.6,5.9-13.3,13.5-18.2,21.6-10.9,18-16.7,37.6-18.9,58.4C398.1,280.3,397.8,283.7,397.5,287Z" fill="#eeeded"/><path d="M365,294.7a6.6,6.6,0,0,1,.5,4.5c-1.6-.1-1.4-1.2-1.3-2.1S364.6,295.5,365,294.7Z" fill="#747170"/><path d="M398.3,294.7a1,1,0,0,1-.6,1.2c-.7.3-.9-.2-.8-.8s-.2-3.5.6-5.2C398.2,291.5,397.1,293.3,398.3,294.7Z" fill="#6e6b6a"/><path d="M212.3,420.2c-5.2,5.1-10.4,10.1-15.5,15.2-1.9,1.9-2.8,2.4-3.5-.9-2.9-13.9-6-27.7-9-41.5-.2-.9-.5-1.7-1.1-3.3-4.5,10.4-7.3,20.7-11,31l-14.3-13.8c-7-39.1,4-74.4,45.8-93.3,2.8-1.3,3-.2,3.2,2.2,2,19.5,7.8,37.7,20.5,53s27.7,22.2,46,24.8c22.9,3.2,45.1-1.2,66.9-7.8,4.2-1.3,4.1-1.3,3.9,3.1A108.5,108.5,0,0,1,339,417c-3.4,2.8-7.6,2-11.5,2.6a140.1,140.1,0,0,1-21.3,1.4c-27-.1-53.3-3.3-76.4-19.1a77.6,77.6,0,0,1-21.9-22.3,37.1,37.1,0,0,1-5.3-12.4c-.5-1-.5-2.2-1-3.2.4,1.3.6,2.5,1.1,3.8,5.4,20.2,17.6,34.8,36.2,44.3s36.5,13,55.9,14.9c11.5,1.1,23,.7,34.5.8,1.6,0,4-.9,4.6,1.9a12.2,12.2,0,0,1-2.4,4.5l-28.9,22.5c0-4.5,0-8.5,0-12.4,0-.9.4-2-.5-2.5s-1.6.5-2.2,1l-35.3,25.8c-1.1.8-2.2,2.4-3.6,1.6s-.4-2.4-.5-3.7c-.1-5.3,0-10.6,0-15.9,0-.7.2-1.8-.8-1.9s-1.2.4-1.6.9l-16.3,16.6c-2.2-.6-1.1-2.3-1.1-3.5-.1-13.2,0-26.3-.1-39.5,0-1.2.5-2.6-.4-3.7-5.8,6.7-9.7,14.5-14.7,21.7s-7.8,11.5-11.7,17.2c-.9-4.2-.3-8.5-.4-12.7-.1-7.5,0-15-.1-22.5C213.4,422.2,214.5,420.4,212.3,420.2Z" fill="#eeeded"/><path d="M440.4,396.8,436.3,381c4.8.6,9.3,1.4,13.8.7,12.2-1.7,20-8.8,24.7-19.9,2.7-6.5,3.7-13.4,4.7-20.3a8.8,8.8,0,0,1,2.2-2.7c4.1-3.7,8.6-7,12-11.6.9-1.2,2-3.3,4.4-2.1,24.1,24.4,28.1,52.9,16.9,84.4a100.1,100.1,0,0,1-6.9,15.1c-2.3,0-2.5-1.9-3.1-3.4s-1.6-5.2-3.2-8.2c-2.4,5.4-4.8,10.3-7.4,15.1-1,1.9-1.4,5.1-3.7,4.9s-2.1-3.7-2.7-5.8-1.6-6.3-2.2-9.8a5.3,5.3,0,0,0-1.7,2.5c-5.7,11.9-12.2,23.4-18.1,35.3a18.5,18.5,0,0,1-.9,1.7c-1.8,2.8-3.4,3-4.7.1s-2.4-2.4-3.9-.1-4.7,7.2-7.1,10.7c-.6.8-1.3,1.8-2.5,1.5s-1.7-1.5-1.8-2.7c-.7-5.9-1.5-11.8-.8-17.8.3-12.9.5-25.8-1.5-38.6-1.1-2.8.3-3.8,2.9-4.5,12.5-3,22.3-10.3,30.9-19.5.2-.3.4-.6.8-.7s-.9.9-1.4,1.3c-6.2,6.7-14.4,9.4-23,11a36.1,36.1,0,0,1-8.5.9C442.9,398.5,441.3,398.4,440.4,396.8Z" fill="#bdbab9"/><path d="M361,409.3c-.6-9.5-.8-19.1-.8-28.7a5.4,5.4,0,0,1,1.5-3.7c4.4-5.2,9.1-10.3,12.9-16a2.9,2.9,0,0,1,2.8-1.5l11.6.2c3.5,2.9,5.1,7.2,7.1,11,11.7,22.2,20.3,45.4,24.5,70.2a220.4,220.4,0,0,1,2.9,32.1,33.6,33.6,0,0,1-1.9,10.6c-4.4-10.7-8.9-21.3-14.8-31.2-4.3-4.8-7.3-10.6-11.4-15.6-9-10.9-18.9-20.5-32.4-25.7A4.4,4.4,0,0,1,361,409.3Z" fill="#fab937"/><path d="M352.4,370.2c-10.8,7.5-23.1,11.4-35.8,13.8-16.7,3.1-33.4,3.2-49.9-1.8-27.4-8.3-42.8-27.1-48.1-54.8-.5-2.5-1.2-5.1-.8-7.7,1.7-.5,2.6.8,3.7,1.6,14,9.7,28.9,17.6,44.3,24.7,1.3.6,2.6,1.1,3.3,2.6,1.3,3.7,2.1,7.5,3.9,10.9q6.8,12.7,18.5,4.4c1.4-1,2.6-2.1,4-3.1s2.5.5,3.6,1.1c5.1,2.7,10.6,2.9,16.1,2.8.9,0,.7-.9,1.3-1.1a5.8,5.8,0,0,1,3.4,0c9.6,2.2,19.3,3.6,29.1,4.9C350.2,368.6,351.9,368.2,352.4,370.2Z" fill="#fab937"/><path d="M444.2,448.8c-.1,6,1.4,11.8,1.7,17.7,0,.9,0,2,1.1,2.2s1.1-.9,1.6-1.5c2.9-4.3,5.9-8.5,8.6-12.9,1.4-2.3,2.2-2.1,3.2.2s.6,4,2.4,4,1.9-2.5,2.6-4l18.9-37c.4-.8.5-1.8,1.9-2.2l4.2,18.9L501.7,411c1.9,3.3,2.8,6.6,4,9.9.5,1.5.8,3,2.3,3.9l-.6,1.7a206.3,206.3,0,0,1-28.6,38.1c-9.7,9.2-19.5,18.1-31,25a63.4,63.4,0,0,1-17.1,7.6,164.5,164.5,0,0,0,8.2-20.8C441.6,467.4,442.9,458.1,444.2,448.8Z" fill="#a3a1a0"/><path d="M421.7,483.5c2.4-26.3-2.5-51.7-10.8-76.4a218,218,0,0,0-20.6-44.7,22.5,22.5,0,0,1-1.3-2.8c4.8-.1,9.6,0,14.4-.2,2.3-.1,3.1,1.3,4,2.9a160.7,160.7,0,0,1,20,58.2,150,150,0,0,1-4.2,61.1,25,25,0,0,1-1.1,2.7l-.3-.2A6.8,6.8,0,0,1,421.7,483.5Z" fill="#bf8f38"/><path d="M333.9,429.6c-4.2-2-8.6-.6-12.9-.8-6.9-.3-13.9.3-20.9-.3-12.7-1-25.4-2.6-37.7-6.2-16.7-4.8-32.5-11.6-44.7-24.5-8.1-8.6-13.9-18.6-15.6-30.6-.3-.8.1-1,.8-.7,5.5,16.2,16.7,27.8,30.8,36.6s31.6,13.5,49,15.5,35,.8,52.5-.9a36.5,36.5,0,0,0,3.8-.8A70.3,70.3,0,0,1,333.9,429.6Z" fill="#b4b2b2"/><path d="M269.1,348.6c-15.9-7.2-31.5-15.1-45.9-25l-5.3-3.8c-1.7-6.5-.5-13.1-.9-20.3l8,5.4a355.2,355.2,0,0,0,38.4,21.9c2.3,1.1,3.4,2.6,3.4,5C266.8,337.4,268.1,343,269.1,348.6Z" fill="#bf8f38"/><path d="M361,409.3c21.4,7.8,35,23.9,45.9,43-14.1-3.9-28.3-7.9-42.4-11.6-2.5-.7-3.4-1.7-3.4-4.2C361.1,427.4,361,418.3,361,409.3Z" fill="#ce9036"/><path d="M352.4,370.2c-8-1.2-15.9-2.6-23.9-3.7-4.3-.6-8.4-2.3-12.9-2.3a2.6,2.6,0,0,1-1.7-.3c-4-3.1-8.3-5.4-13.4-6a1.6,1.6,0,0,1-1.5-1.1,82.3,82.3,0,0,0,7.5-9.4c.8-1.1,1.4-2.4,3.3-1.7A294.7,294.7,0,0,0,362,358.3l2,.5A34.1,34.1,0,0,1,352.4,370.2Z" fill="#bf8f38"/><path d="M471.7,347.9a46.8,46.8,0,0,1-9.7,19.2c-6.7,7.9-16.8,10.3-26,6.3-1.5-.7-3.2-1.3-3.3-3.5,3.7-.8,6.8-2.4,7.8-6.5s2.1-5.6,5.8-6.6a93.3,93.3,0,0,0,22.2-9.1C470.1,346.7,470.2,346.8,471.7,347.9Z" fill="#dea539"/><path d="M408.6,494.1c-6.2-6.9-11.8-14.2-17.5-21.5a6.2,6.2,0,0,0-2.8-2l-29-11.6c1.4-2.9,3.6-3.3,6.7-2.7,10,1.9,20.1,3.5,30.2,5,2.2.3,3.3,1.1,3.9,3.4C402.9,474.6,406.3,484.2,408.6,494.1Z" fill="#cbc9c8"/><path d="M477.2,385.9c-7.9,10.9-18.7,17.4-31.5,20.8-2.3.6-3,1.4-2.9,3.5l-2.3-13.3c7.2,1.9,14-.3,20.8-2.3s10.4-5,15-8.6A.5.5,0,0,1,477.2,385.9Z" fill="#949191"/><path d="M471.7,347.9c-.5-.7-1.2-.4-1.7,0-7.2,4.5-15.1,7.4-23.1,9.8-3.2,1-5.9,1.9-6.3,5.7-1.2-6.2,1.4-9.1,7.5-10.9,9.3-2.8,17.4-8.3,25.8-14.1A26.3,26.3,0,0,1,471.7,347.9Z" fill="#ac8238"/><path d="M498,325.2c-2.3.1-3.3,2-4.4,3.4-3.9,5.2-9.1,9-14.1,12.9-.7-5.1.4-9.3,4.8-12.5a33.1,33.1,0,0,0,6.2-6.4c1.7-2.1,3-2.4,4.8-.2A33.5,33.5,0,0,0,498,325.2Z" fill="#949190"/><path d="M314.2,363.3l1.4.8c1.2,2.2-.7,1.6-1.6,1.7-6.7.2-13.1-.8-18.6-5l-1.4-2.1c.1-1.9,1.3-1,2.1-.9A67.3,67.3,0,0,1,314.2,363.3Z" fill="#fdfcfa"/><path d="M314.2,363.3l-17.1-4.5c-1-.2-2-1.5-3.1-.1-.9-.8-1.2-1.5.4-1.6l4.6-.3C304.8,357.2,310.1,359.1,314.2,363.3Z" fill="#bfbcbb"/><path d="M257.6,498.1c-.7.4-1.6,1.2-2.1,0s.6-1,1.3-.8Z" fill="#767473"/><path d="M240.3,419.4c1.6.7.7,2.1.8,3.1.1,13.2,0,26.4.1,39.6,0,1.4-.5,2.9.8,4-.4.5-.8,1.7-1.5.4s-.1-2-.1-3.1Q240.3,441.4,240.3,419.4Z" fill="#d8d8d7"/><path d="M212.3,420.2c.8-1.2,1.5-1.8,1.6.3s0,4.9,0,7.3q0,15.2,0,30.5a2.7,2.7,0,0,1,.2.7c0,.5-.5.7-.6.3a15.7,15.7,0,0,1-.4-3.4c0-10.6,0-21.2,0-31.8C213.1,422.8,213.6,421.3,212.3,420.2Z" fill="#dbd9d9"/><path d="M202.9,366.5l-.8.7c-1-.9-.9-2-.5-3.3C202.6,364.6,202.5,365.7,202.9,366.5Z" fill="#cfcdcd"/><path d="M477.2,385.9h-.9l2.8-3.3A3.4,3.4,0,0,1,477.2,385.9Z" fill="#a19f9e"/></svg>