<?xml version="1.0" encoding="UTF-8" standalone="no"?>
<svg
   xmlns:dc="http://purl.org/dc/elements/1.1/"
   xmlns:cc="http://creativecommons.org/ns#"
   xmlns:rdf="http://www.w3.org/1999/02/22-rdf-syntax-ns#"
   xmlns:svg="http://www.w3.org/2000/svg"
   xmlns="http://www.w3.org/2000/svg"
   id="svg947"
   version="1.1"
   viewBox="0 0 180.34 38.100001"
   height="1.5in"
   width="7.0999999in">
  <defs
     id="defs941" />
  <metadata
     id="metadata944">
    <rdf:RDF>
      <cc:Work
         rdf:about="">
        <dc:format>image/svg+xml</dc:format>
        <dc:type
           rdf:resource="http://purl.org/dc/dcmitype/StillImage" />
        <dc:title></dc:title>
      </cc:Work>
    </rdf:RDF>
  </metadata>
  <g
     transform="translate(0,-258.89999)"
     id="layer1">
    <g
       id="layer1-3"
       transform="translate(-12.273474,249.1062)">
      <path
         style="fill:#fbb040;stroke-width:0.06971063"
         d="m 140.91988,38.765007 0.27884,-0.571627 -0.0139,-3.178803 -2.46078,1.394213 -0.42523,0.237013 h -0.007 l -0.89925,0.508889 -5.58382,-4.46148 -5.60474,3.387939 -4.02927,-2.844195 -2.15408,-1.477866 -4.30811,2.105262 -1.8055,0.885325 -5.71626,-3.513417 c -2.01464,1.164167 -3.6389,2.112233 -5.20739,3.032414 l -0.93412,0.550713 -0.90624,-0.585569 c -1.763694,-1.136284 -3.666801,-2.35622 -6.002101,-3.834086 l -0.0209,-0.01394 -0.0976,0.06274 c -2.30743,1.456953 -4.41269,2.809339 -6.43429,4.147782 l -2.73266,1.805508 0.014,-5.444402 c -2.14709,1.387242 -4.14778,2.725685 -6.09969,4.0711 l -0.92714,0.64134 -0.96898,-0.5786 c -1.6382,-0.982919 -3.15092,-1.9031 -4.60788,-2.795397 -1.79155,1.275706 -3.47159,2.509584 -5.11675,3.757404 l -0.94807,0.718019 -1.01778,-0.613453 -2.537462,-1.540606 -0.01389,2.830254 0.878362,3.394909 0.99686,3.94562 -3.548273,-1.979782 c -2.823304,-1.575462 -5.374713,-3.046355 -7.814589,-4.50331 l -0.180981,-0.10456 c -2.258618,-1.338446 -4.377822,-2.642032 -6.462172,-3.973506 l -1.861267,-1.205994 1.87521,-1.819448 0.01397,-15.580324 -1.443013,-1.777622 -2.279534,-2.851163 h 110.59548 l -2.37016,2.872077 -1.41513,1.700939 0.0209,9.522471 c 1.70791,0.160334 3.42279,0.32764 5.11675,0.501918 l 1.57546,0.160334 v 8.609262 l -0.78772,0.522828 c -3.50645,2.314396 -7.21505,4.607873 -11.33496,7.005919 l -0.28581,0.167306 -0.25792,0.153363 -8.17009,4.754272 z M 80.773529,22.348156 c 1.67305,-0.06274 3.34612,-0.111538 4.99128,-0.160335 h 0.13942 v -0.501916 h -0.0487 l -5.0819,0.104566 z"
         id="path96" />
      <path
         style="fill:#231f20;stroke-width:0.06971063"
         d="m 155.74731,26.461083 c -1.95189,-0.202162 -3.93864,-0.39735 -5.90447,-0.571628 l -0.0209,-10.644812 1.61728,-1.937955 1.18508,-1.436038 H 45.709079 l 1.136285,1.422096 c 0.536776,0.669221 1.087488,1.345415 1.631228,2.014636 l -0.01397,16.263489 -0.550715,0.536772 -0.787731,0.773788 0.934125,0.592542 c 2.077379,1.3245 4.182639,2.621119 6.441263,3.959561 l 0.181253,0.104566 c 2.425922,1.449983 4.970359,2.920876 7.786669,4.489365 l 1.777623,0.989891 -0.501922,-1.97281 -0.885319,-3.506446 0.02087,-4.503306 c 1.261761,0.78076 2.551411,1.56849 3.854991,2.349249 l 0.50889,0.306726 0.47403,-0.355522 c 1.79157,-1.359358 3.63193,-2.711745 5.61171,-4.105957 1.60334,0.982919 3.2764,2.000694 5.09585,3.095151 l 0.481,0.292785 0.46706,-0.320668 c 2.22377,-1.526664 4.51028,-3.046355 6.99198,-4.64273 l 0.40432,-0.257928 v 0 l 0.0906,-0.05577 -0.0139,5.423486 1.36632,-0.899265 c 2.02161,-1.338446 4.13384,-2.697802 6.44824,-4.154755 l 0.23701,-0.146393 v 0 l 0.0419,-0.02789 0.13245,-0.08365 v 0 l 0.23702,-0.153363 v 0.104566 l 0.41129,0.257928 c 2.3353,1.477866 4.245384,2.697802 6.009071,3.834084 l 0.45312,0.292785 0.46706,-0.271872 c 1.66608,-0.982917 3.42977,-2.007665 5.65353,-3.297312 l 0.27884,0.160336 5.47925,3.367023 1.37329,-0.669222 2.67691,-1.310559 2.07737,-1.017776 c 0.89228,0.599511 1.74973,1.192052 2.58627,1.77065 l 3.5622,2.509582 5.36772,-3.248515 0.27187,-0.160334 0.13245,0.09759 5.46531,4.370855 0.81561,-0.460089 h 0.0139 c 1.27569,-0.718019 2.53746,-1.436038 3.75739,-2.147086 l 0.0209,4.893686 -0.37645,0.773787 -2.95572,5.465313 5.47924,-3.185774 v 0 l 0.54374,-0.313698 c 4.10597,-2.391076 7.80063,-4.677584 11.29313,-6.985006 l 0.39038,-0.25793 v -7.326585 z"
         id="path98" />
      <path
         style="fill:#ffffff;stroke-width:0.06971063"
         d="m 60.968743,14.50571 -0.09063,23.394888 0.320675,1.268732 q -2.41199,-1.38027 -4.817007,-2.816309 l 0.216103,-0.369467 v -1.71488 q -1.185087,-3.527359 -2.377138,-7.159283 l -0.01389,7.486921 -0.10456,0.355525 v 0.03485 Q 52.087652,33.766752 50.07302,32.484076 l 0.216095,-0.20216 q 0.0067,-8.825367 0.02088,-17.657702 l -0.731957,-0.871383 4.670603,-0.02789 v 0.411293 q 1.192059,3.506444 2.38411,6.908323 l 0.02087,-7.340529 5.033108,-0.02789 z"
         id="path100" />
      <path
         style="fill:#ffffff;stroke-width:0.06971063"
         d="m 71.529909,13.634327 1.61031,1.387242 -0.0627,14.165199 q -2.97664,2.084348 -5.94632,4.315089 -2.48867,-1.50575 -4.970367,-3.07424 l 0.06273,-15.182974 1.554546,-1.57546 z m -5.19345,3.827114 -0.0418,9.982561 2.39805,1.624258 0.0557,-11.669558 z"
         id="path102" />
      <path
         style="fill:#ffffff;stroke-width:0.06971063"
         d="m 80.424979,19.183293 v -1.993724 l -2.41199,0.03486 -0.0418,9.487615 2.40502,1.603345 0.0139,-3.346109 4.39177,-0.153364 -0.0139,3.722546 q -2.97665,1.924013 -5.96026,3.959564 -2.49564,-1.51272 -4.98431,-3.046354 l 0.0627,-14.332504 1.55454,-1.491807 7.76576,-0.02092 1.61032,1.338444 -0.0139,4.168696 z"
         id="path104" />
      <path
         style="fill:#ffffff;stroke-width:0.06971063"
         d="m 93.091399,17.649659 -0.0209,10.923656 q -2.20285,1.394211 -4.40571,2.83025 l 0.0418,-13.71905 -3.13001,0.03485 0.0139,-4.126869 10.67269,-0.01394 v 4.050187 z"
         id="path106" />
      <path
         style="fill:#ffffff;stroke-width:0.06971063"
         d="m 103.66651,13.571588 h 4.3848 l 0.0209,14.667116 q -2.96967,1.721852 -5.95328,3.471591 -2.509587,-1.61729 -5.012221,-3.206691 0.007,-7.466008 0.0139,-14.932016 h 4.133861 q 0,6.273956 0,12.547912 l 2.41896,1.666085 q -0.007,-7.103514 -0.007,-14.213997 z"
         id="path108" />
      <path
         style="fill:#ffffff;stroke-width:0.06971063"
         d="m 118.36848,13.592502 1.3733,1.408153 0.0209,5.263154 -2.80237,1.219935 2.80934,1.38027 0.0209,6.03694 -4.39176,2.161031 -0.0209,-6.594626 -2.41896,-1.289647 0.0209,7.912157 q -2.07737,-1.289648 -4.15474,-2.537467 l -0.0209,-13.802704 1.11537,-1.171139 z m -5.41651,3.311254 v 2.851164 l 2.40502,-1.150225 v -1.680026 z"
         id="path110" />
      <path
         style="fill:#ffffff;stroke-width:0.06971063"
         d="m 124.92128,24.94836 0.0279,7.019863 q -2.20286,-1.547577 -4.40572,-3.032414 l -0.0627,-15.336337 4.45451,0.01394 q 1.17811,2.934817 2.36318,5.925402 l -0.0279,-5.918431 4.13384,0.01394 0.0767,16.0683 q -2.00765,1.233879 -4.01533,2.446844 -1.26873,-3.638894 -2.54444,-7.201109 z"
         id="path112" />
      <path
         style="fill:#ffffff;stroke-width:0.06971063"
         d="m 136.3608,26.719011 0.0279,6.232133 q -2.07041,-1.680028 -4.14778,-3.276401 l -0.0697,-14.527695 1.54061,-1.498778 7.75879,0.03485 1.62427,1.498778 0.0557,15.48273 q -2.18194,1.296617 -4.36389,2.537468 l -0.0279,-6.308813 z m 2.39106,-3.67375 -0.0209,-5.528052 -2.40502,-0.06274 0.0209,5.465311 z"
         id="path114" />
      <path
         style="fill:#ffffff;stroke-width:0.06971063"
         d="m 147.83517,14.56845 0.0419,16.347142 q 1.19902,-0.745903 2.39106,-1.519692 v -1.596373 l 4.29418,0.446149 q 0,2.265593 0,4.53119 c -3.62495,2.391075 -7.24992,4.621815 -10.87487,6.74799 l 0.28583,-0.58557 -0.0836,-24.412663 -0.71803,-0.836527 5.38864,0.03486 z"
         id="path116" />
      <g
         transform="matrix(0.06971063,0,0,0.06971063,42.376919,8.217812)"
         style="opacity:0.07000002"
         id="g136">
        <path
           d="m 266.7,90.2 -1.3,335.6 4.6,18.2 q -34.6,-19.8 -69.1,-40.4 l 3.1,-5.3 V 373.7 Q 187,323.1 170,271 l -0.2,107.4 -1.5,5.1 v 0.5 q -28.9,-17.5 -57.8,-35.9 l 3.1,-2.9 q 0.1,-126.6 0.3,-253.3 l -10.5,-12.5 67,-0.4 v 5.9 q 17.1,50.3 34.2,99.1 l 0.3,-105.3 72.2,-0.4 z"
           id="path118" />
        <path
           d="m 418.3,77.7 23.1,19.9 -0.9,203.2 q -42.7,29.9 -85.3,61.9 -35.7,-21.6 -71.3,-44.1 L 284.8,100.8 307,78.2 Z m -74.5,54.9 -0.6,143.2 34.4,23.3 0.8,-167.4 z"
           id="path120" />
        <path
           d="m 545.9,157.3 v -28.6 l -34.6,0.5 -0.6,136.1 34.5,23 0.2,-48 63,-2.2 -0.2,53.4 q -42.7,27.6 -85.5,56.8 -35.8,-21.7 -71.5,-43.7 l 0.9,-205.6 22.3,-21.4 111.4,-0.3 23.2,19 -0.2,59.8 z"
           id="path122" />
        <path
           d="M 727.6,135.3 727.3,292 q -31.6,20 -63.2,40.6 l 0.6,-196.8 -44.9,0.5 0.2,-59.2 153.1,-0.2 V 135 Z"
           id="path124" />
        <path
           d="m 879.3,76.8 h 62.9 l 0.3,210.4 q -42.6,24.7 -85.4,49.8 -36,-23.2 -71.9,-46 0.1,-107.1 0.2,-214.2 h 59.3 q 0,90 0,180 l 34.7,23.9 Q 879.3,178.8 879.3,76.8 Z"
           id="path126" />
        <path
           d="m 1090.2,77.1 19.7,20.2 0.3,75.5 -40.2,17.5 40.3,19.8 0.3,86.6 -63,31 -0.3,-94.6 -34.7,-18.5 0.3,113.5 Q 983.1,309.6 953.3,291.7 L 953,93.7 969,76.9 Z m -77.7,47.5 v 40.9 L 1047,149 v -24.1 z"
           id="path128" />
        <path
           d="m 1184.2,240 0.4,100.7 q -31.6,-22.2 -63.2,-43.5 l -0.9,-220 63.9,0.2 q 16.9,42.1 33.9,85 l -0.4,-84.9 59.3,0.2 1.1,230.5 q -28.8,17.7 -57.6,35.1 -18.2,-52.2 -36.5,-103.3 z"
           id="path130" />
        <path
           d="m 1348.3,265.4 0.4,89.4 q -29.7,-24.1 -59.5,-47 l -1,-208.4 22.1,-21.5 111.3,0.5 23.3,21.5 0.8,222.1 q -31.3,18.6 -62.6,36.4 l -0.4,-90.5 z m 34.3,-52.7 -0.3,-79.3 -34.5,-0.9 0.3,78.4 z"
           id="path132" />
        <path
           d="m 1512.9,91.1 0.6,234.5 q 17.2,-10.7 34.3,-21.8 v -22.9 l 61.6,6.4 q 0,32.5 0,65 c -52,34.3 -104,66.3 -156,96.8 l 4.1,-8.4 -1.2,-350.2 -10.3,-12 77.3,0.5 z"
           id="path134" />
      </g>
      <path
         style="stroke-width:0.05162761"
         d="m 189.69502,20.804256 c 0.18072,2.250964 -0.16521,4.419322 -1.05836,6.458612 l 1.0119,0.598886 -0.031,0.08778 -1.35781,0.273628 v 0.08261 c 0.74857,-0.06192 1.46105,-0.01034 1.99798,0.588554 l -2.58138,0.227166 c 0.20651,0.351066 0.40271,0.62469 0.53693,0.92413 0.13424,0.29944 0.20651,0.629855 0.32525,1.006743 l -1.20291,-0.464652 -0.0206,-0.01552 c -0.52661,-0.180699 -0.51628,-0.175539 -0.87766,0.278788 -0.2375,0.299439 -0.49565,0.578228 -0.75379,0.857015 -0.25813,0.27879 -0.59371,0.598881 -0.89314,0.89832 -1.16679,1.182273 -2.48328,2.173526 -3.87723,3.051192 -0.84671,0.531767 -1.73984,0.991251 -2.62268,1.461069 -0.10327,0.05676 -0.29427,0.03614 -0.41303,-0.02069 a 23.950055,23.950055 0 0 1 -4.70327,-2.942771 c -0.49047,-0.39237 -0.96546,-0.800228 -1.42494,-1.228742 -0.45947,-0.428509 -0.90347,-0.877668 -1.33715,-1.337153 a 9.7111556,9.7111556 0 0 1 -0.82605,-0.986085 c -0.1239,-0.170372 -0.24265,-0.175536 -0.39753,-0.118749 l -1.4972,0.552417 c 0.1549,-0.67632 0.34589,-1.311342 0.82087,-1.837942 l -0.0206,-0.08262 -2.55038,-0.216834 c 0.54722,-0.593719 1.2597,-0.655673 2.01348,-0.650506 l -1.37847,-0.299442 c 0.24266,-0.330416 0.60404,-0.505952 1.02221,-0.629856 a 14.233735,14.233735 0 0 1 -0.96544,-3.190601 c -0.20134,-1.110001 -0.14971,-2.230318 -0.14456,-3.417752 l 0.37174,0.356236 c 0.32524,0.320089 0.62468,0.66599 0.9706,0.960273 0.3459,0.294272 0.29944,0.578227 0.30461,0.903478 0.0206,1.393947 0.40271,2.669145 1.19259,3.820442 0.78991,1.151298 1.77084,1.843108 2.98407,2.349063 a 5.369273,5.369273 0 0 0 2.39554,0.392365 c 0.25295,-0.01545 0.50076,-0.08778 0.75375,-0.103251 a 0.36139335,0.36139335 0 0 1 0.27363,0.103251 c 0.54211,0.671159 1.06352,1.362971 1.60562,2.034131 0.23234,0.289113 0.49564,0.557576 0.76923,0.857015 0.40271,-0.46981 0.8054,-0.908645 1.17714,-1.36813 0.3717,-0.459485 0.79505,-1.048039 1.19775,-1.564313 a 0.26846363,0.26846363 0 0 1 0.2065,-0.07745 c 0.41818,0.03614 0.83636,0.108417 1.25456,0.123909 0.72278,0.0258 1.41977,-0.14456 2.08061,-0.433673 a 7.0523333,7.0523333 0 0 0 2.1219,-1.41976 c 0.8983,-0.877667 1.45074,-1.946359 1.72435,-3.154448 0.12388,-0.567904 0.16005,-1.156458 0.20134,-1.739853 0.0206,-0.289114 0.0826,-0.495619 0.32525,-0.696968 0.35623,-0.294281 0.65052,-0.665996 0.97577,-1.001578 l 0.25298,-0.278789 z"
         id="path4" />
      <path
         style="stroke-width:0.05162761"
         d="m 178.11494,24.598887 c 0.28395,-0.325256 0.52661,-0.655673 0.82089,-0.929296 0.40785,-0.37172 0.8312,-0.73828 1.28552,-1.03772 0.93964,-0.614365 1.8844,-1.228736 2.87049,-1.760502 0.64018,-0.345901 1.36816,-0.536924 2.04963,-0.810552 1.14614,-0.459485 2.26129,-0.97576 3.23703,-1.745016 0.68151,-0.536928 1.35783,-1.094503 1.95672,-1.714034 0.59887,-0.619531 1.14097,-1.362971 1.70889,-2.054781 l 0.12904,-0.165208 0.0619,0.0258 c -0.11876,0.382047 -0.20651,0.779579 -0.35622,1.146136 -0.33044,0.805388 -0.66084,1.610785 -1.04807,2.385194 a 13.851692,13.851692 0 0 1 -1.68822,2.596873 c -0.74861,0.908643 -1.57981,1.719199 -2.5917,2.318078 -0.54724,0.325249 -1.13582,0.583392 -1.70889,0.872507 -0.7331,0.366554 -1.4817,0.707297 -2.19931,1.099669 -0.60922,0.335576 -1.1926,0.722788 -1.77599,1.104825 a 11.56975,11.56975 0 0 0 -2.03415,1.693388 c -0.24263,0.258138 -0.44916,0.547258 -0.6763,0.820881 a 0.22716154,0.22716154 0 0 1 -0.0567,0.0413 c -0.37686,-0.413022 -0.7331,-0.820881 -1.1203,-1.208085 -0.76925,-0.774417 -1.66241,-1.399106 -2.59689,-1.951525 -0.72795,-0.428508 -1.47137,-0.831205 -2.22514,-1.218411 -0.55241,-0.283954 -1.13064,-0.521438 -1.69853,-0.784743 -0.80542,-0.371719 -1.50752,-0.898316 -2.17353,-1.476547 -0.85186,-0.738278 -1.54368,-1.605621 -2.15288,-2.540083 a 17.501763,17.501763 0 0 1 -2.01348,-4.336718 c -0.0567,-0.180695 -0.098,-0.361393 -0.14456,-0.542089 0,-0.01034 0.0154,-0.02062 0.0413,-0.05159 0.24267,0.320091 0.47498,0.645349 0.72797,0.955115 0.25296,0.309764 0.60402,0.722781 0.91898,1.073851 a 14.497037,14.497037 0 0 0 2.82917,2.380039 13.350904,13.350904 0 0 0 3.03052,1.450729 c 1.12035,0.376885 2.15289,0.908649 3.1338,1.553991 0.59893,0.392375 1.21844,0.748607 1.78119,1.18744 0.47497,0.366556 0.87765,0.826042 1.31134,1.249387 0.11875,0.108419 0.22716,0.227161 0.36653,0.371721 z"
         id="path6" />
      <path
         style="stroke-width:0.05162761"
         d="m 188.08423,18.000875 c -0.33556,0.428508 -0.79506,0.665992 -1.27003,0.84669 -1.34747,0.51628 -2.70013,1.011904 -3.97533,1.698553 -0.29428,0.160047 -0.55756,0.196183 -0.88283,-0.01552 a 6.5876847,6.5876847 0 0 0 -2.57107,-1.006736 c -0.62468,-0.0981 -1.25968,-0.191022 -1.89988,-0.06711 -0.50594,0.09811 -1.01707,0.165213 -1.51786,0.283954 -0.68146,0.165214 -1.29585,0.500789 -1.88441,0.877669 -0.17553,0.113584 -0.33039,0.123909 -0.51109,0.03096 -1.31133,-0.696973 -2.68981,-1.239064 -4.08378,-1.755338 -0.43882,-0.165211 -0.83118,-0.454324 -1.23386,-0.707302 -0.14974,-0.09294 -0.14456,-0.232318 0.0103,-0.335579 0.64534,-0.433673 1.27521,-0.893158 1.94119,-1.301013 1.12033,-0.676322 2.30259,-1.223578 3.56747,-1.559154 0.79507,-0.211675 1.61078,-0.402697 2.4265,-0.490462 a 20.878211,20.878211 0 0 1 2.94279,-0.103259 c 1.04288,0.03614 2.06509,0.237487 3.077,0.521442 a 14.166619,14.166619 0 0 1 3.26286,1.342316 c 0.8725,0.500788 1.68307,1.09451 2.51941,1.64176 a 0.53176455,0.53176455 0 0 1 0.0826,0.0981 z"
         id="path8" />
      <path
         style="stroke-width:0.05162761"
         d="m 174.52682,20.990112 c 2.37488,-1.714032 5.18859,-1.430084 7.16074,-0.005 -0.51108,0.382048 -1.0377,0.7486 -1.52815,1.151297 -0.63505,0.516274 -1.2494,1.058366 -1.85342,1.605616 -0.14973,0.134236 -0.22719,0.160047 -0.38206,0.005 -0.87768,-0.903486 -1.88442,-1.652085 -2.90663,-2.38004 -0.16522,-0.123902 -0.32524,-0.247811 -0.49048,-0.37688 z"
         id="path10" />
      <path
         style="stroke-width:0.05162761"
         d="m 179.11135,27.706868 0.61439,-0.567902 c 0.70729,0.23232 1.38359,0.485296 2.07025,0.671158 0.90865,0.242645 1.79666,0.201349 2.59687,-0.366559 0.61439,-0.433668 0.97059,-1.0532 1.16161,-1.755336 0.11359,-0.423348 0.14973,-0.872509 0.21169,-1.311341 0.031,-0.211675 0.0361,-0.428509 0.0516,-0.640183 0.005,-0.0413 0.005,-0.09811 0.031,-0.113583 l 0.97577,-0.629858 c -0.0258,0.449162 -0.0104,0.805395 -0.0672,1.151298 -0.0929,0.583393 -0.18587,1.166782 -0.35109,1.729523 -0.41302,1.39395 -1.23387,2.436827 -2.73625,2.746594 a 4.651649,4.651649 0 0 1 -2.16836,-0.04647 c -0.74344,-0.201343 -1.46623,-0.495623 -2.19934,-0.75376 a 1.2184119,1.2184119 0 0 1 -0.19103,-0.113584 z"
         id="path12" />
      <path
         style="stroke-width:0.05162761"
         d="m 177.1082,27.706868 c -0.94993,0.459485 -1.88441,0.779577 -2.89116,0.893159 -0.82086,0.09294 -1.62624,0.07744 -2.40583,-0.247817 -0.67116,-0.273622 -1.1668,-0.7486 -1.54366,-1.342313 a 4.7342534,4.7342534 0 0 1 -0.71761,-2.070273 c -0.0671,-0.624691 -0.12392,-1.249387 -0.19105,-1.941191 0.36141,0.216833 0.66601,0.382038 0.95511,0.578226 0.0619,0.04647 0.0774,0.191022 0.0826,0.289115 0.0154,0.898319 0.13939,1.770828 0.56276,2.576215 0.42333,0.805393 1.09963,1.331994 2.05476,1.455901 0.82088,0.108418 1.57981,-0.108416 2.33355,-0.356227 0.31493,-0.103258 0.61953,-0.263304 0.93447,-0.37172 a 0.36139335,0.36139335 0 0 1 0.28913,0.05159 c 0.18585,0.139395 0.34588,0.309772 0.53689,0.485304 z"
         id="path14" />
      <path
         style="stroke-width:0.05162761"
         d="m 175.94658,26.694966 c -0.83635,0.44916 -1.68305,0.748599 -2.59171,0.733115 -1.22355,-0.01552 -1.92053,-0.578231 -2.23546,-1.760502 -0.14971,-0.552419 -0.15488,-1.140972 -0.222,-1.71404 l 0.0826,-0.0413 c 0.36136,0.185862 0.7331,0.356233 1.08415,0.562743 0.0672,0.0413 0.0878,0.201349 0.0878,0.309764 0.0206,0.536927 0.1652,1.017061 0.57822,1.399109 0.41304,0.382045 0.77443,0.402697 1.2184,0.330417 0.44402,-0.07226 0.76928,-0.216834 1.15648,-0.309768 0.0826,-0.02062 0.19619,0.02063 0.2736,0.07228 0.1859,0.123909 0.36141,0.268464 0.56791,0.418184 z"
         id="path16" />
      <path
         style="stroke-width:0.05162761"
         d="m 180.25747,26.684641 c 0.22718,-0.160045 0.41303,-0.330418 0.62989,-0.433668 0.11358,-0.05164 0.28395,-0.01035 0.42334,0.02062 0.33557,0.07745 0.65566,0.206514 0.99642,0.252978 0.76925,0.108416 1.45073,-0.345904 1.6469,-1.089341 0.0619,-0.242652 0.0619,-0.505951 0.10844,-0.753768 0.0154,-0.08778 0.0619,-0.206507 0.12907,-0.242644 0.33556,-0.185864 0.68665,-0.345909 1.05836,-0.526607 0.0361,0.73828 -0.0206,1.430085 -0.28396,2.101244 -0.444,1.125487 -1.32167,1.466227 -2.34389,1.424925 -0.69699,-0.03095 -1.59529,-0.335581 -2.36457,-0.753764 z"
         id="path18" />
      <path
         style="stroke-width:0.05162761"
         d="m 178.10462,31.940334 c -0.72795,-1.032555 -1.54365,-1.96185 -2.04446,-3.102822 l 0.0516,-0.04649 c 0.18587,0.108415 0.38205,0.216834 0.56273,0.330416 0.43368,0.278787 0.86736,0.557578 1.29586,0.846691 0.11875,0.07744 0.1962,0.04649 0.29946,-0.02063 0.60405,-0.39237 1.20808,-0.779576 1.84825,-1.140969 -0.50593,1.135809 -1.26486,2.101244 -2.01349,3.133798 z"
         id="path20" />
      <path
         style="fill:#fab937;stroke-width:0.04260362"
         d="m 30.7813,16.95848 c 0.398484,-1.661635 0.485653,-3.353879 0.589426,-5.067988 0.406785,0.327954 0.792818,0.647164 1.183002,0.953254 a 5.7904873,6.0999525 0 0 1 1.842994,2.39188 7.0648095,7.4423791 0 0 1 0.597728,2.474963 c 0.157733,1.915255 -0.182641,3.756173 -0.759613,5.557734 a 0.39433426,0.41540894 0 0 0 0.03321,0.362936 c 0.626785,1.224363 0.983761,2.523063 0.921499,3.926708 -0.0415,0.99698 -0.282262,1.94149 -0.743011,2.80729 -0.224148,0.419783 -0.240749,0.83519 -0.178488,1.276836 0.132829,0.913901 0.431693,1.784073 0.65169,2.676108 l 0.0581,0.244872 c -0.0581,0.02624 -0.09132,-0.0175 -0.124526,-0.03499 L 33.317482,33.70601 a 3.3746709,3.5550258 0 0 1 -0.809424,-0.585946 c -0.0664,-0.06559 -0.103766,-0.06559 -0.170186,-0.0044 a 11.087019,11.67955 0 0 1 -1.473566,1.154401 0.22829878,0.24049991 0 0 0 -0.107923,0.118058 c -0.269807,0.756482 -0.398486,1.530455 -0.207544,2.330664 a 2.1169522,2.23009 0 0 0 0.826028,1.298695 c 0.523011,0.397919 1.029419,0.822075 1.552432,1.241856 -0.170188,0.07871 -0.336224,0.05685 -0.493958,0.06995 q -1.261868,0.122438 -2.523739,0.218638 a 22.726106,23.940673 0 0 1 -2.631662,0.03499 C 24.662882,39.460509 22.147445,38.927042 19.806346,37.64583 18.486363,36.924332 17.311663,35.99294 16.31545,34.825423 l -0.120371,-0.135554 -0.09546,2.212597 h -0.03321 l -0.722255,-1.307443 c -0.535464,-0.975116 -1.099982,-1.932744 -1.535826,-2.964709 -0.593577,-1.394897 -1.008666,-2.84227 -1.17055,-4.363979 -0.211697,-1.958981 -0.03321,-3.878607 0.585274,-5.745762 a 10.128164,10.669451 0 0 1 0.772066,-1.827796 0.4441449,0.46788165 0 0 0 0.05396,-0.354193 14.739798,15.527548 0 0 1 -0.307164,-3.393236 c 0.01661,-1.185007 0.178488,-2.348151 0.630934,-3.45008 a 5.0059693,5.2735068 0 0 1 1.834697,-2.317526 3.2501444,3.4238441 0 0 0 0.32377,-0.249246 c 0.09547,-0.08745 0.14113,-0.0656 0.207543,0.03936 q 0.722255,1.110675 1.50262,2.168874 c 0.689048,0.931391 1.386399,1.854035 2.195819,2.676109 0.09132,0.09183 0.161888,0.113691 0.282262,0.07433 1.083382,-0.345445 2.183367,-0.599062 3.312407,-0.704009 1.614695,-0.148671 3.204486,-0.03061 4.732012,0.585946 a 7.558765,7.9627335 0 0 1 1.926012,1.123791 z"
         id="path31" />
      <path
         style="fill:#070707;stroke-width:0.04260362"
         d="m 34.263893,26.302994 c -0.153583,-0.94888 -0.498106,-1.823426 -0.967156,-2.641125 a 0.25320409,0.26673626 0 0 1 -0.02074,-0.262364 14.009244,14.75795 0 0 0 0.838478,-3.664343 8.2436615,8.6842333 0 0 0 -0.09132,-2.789801 C 33.782403,15.699136 33.242788,14.623444 32.304687,13.797 c -0.04982,-0.04372 -0.09548,-0.109318 -0.178488,-0.113691 -0.05812,0.51161 -0.107923,1.023219 -0.170186,1.534828 -0.103777,0.870173 -0.249053,1.731599 -0.518862,2.566792 a 2.4448724,2.5755354 0 0 1 -0.311315,0.669025 c -0.04982,0.06995 -0.08301,0.08308 -0.145281,0.0044 -0.709805,-0.900776 -1.627149,-1.486718 -2.66072,-1.880265 -1.527526,-0.581572 -3.100711,-0.64279 -4.694652,-0.428527 a 15.636389,16.472056 0 0 0 -3.009394,0.730246 c -0.186791,0.06559 -0.311316,0.03936 -0.456598,-0.0962 -0.60603,-0.559722 -1.141494,-1.185022 -1.656204,-1.836559 -0.684896,-0.878916 -1.336586,-1.784071 -1.96337,-2.706718 -0.07057,-0.104946 -0.11208,-0.118062 -0.211695,-0.03498 a 4.0346624,4.2502898 0 0 0 -0.655839,0.7215 c -0.668294,0.944509 -0.933951,2.042062 -1.02942,3.187716 -0.124527,1.508591 0.01661,2.99969 0.327919,4.473299 a 0.21169522,0.223009 0 0 1 -0.02907,0.188029 c -0.460748,0.769599 -0.792819,1.604789 -1.041872,2.474961 -0.531314,1.823426 -0.622632,3.681836 -0.319619,5.562107 0.282261,1.744717 0.884139,3.362626 1.718467,4.888707 0.01245,0.02624 0.01661,0.06995 0.0664,0.0612 0.05397,-0.48537 0.0664,-0.983862 0.315467,-1.429881 0.07057,0.04811 0.08301,0.113692 0.107923,0.166166 a 7.5919721,7.9977152 0 0 0 0.855085,1.338051 c 1.016965,1.316191 2.274684,2.321919 3.710891,3.082775 2.067142,1.097553 4.283715,1.59167 6.579157,1.73597 a 24.722681,26.043952 0 0 0 3.677685,-0.06995 c 0,-0.06995 -0.04567,-0.104944 -0.08301,-0.139928 -0.41924,-0.432897 -0.676595,-0.961999 -0.826028,-1.552317 -0.04567,-0.1924 -0.07057,-0.389172 -0.103765,-0.581572 -0.04566,-0.870172 0.120372,-1.696618 0.439994,-2.492454 a 0.34452358,0.3629362 0 0 1 0.14943,-0.188026 10.522499,11.084861 0 0 0 2.299592,-1.923999 c 0.03321,-0.03936 0.05397,-0.100582 0.120373,-0.100582 0.02905,0.454764 0.601877,1.071319 1.016966,1.206873 -0.08301,-0.411036 -0.199243,-0.808956 -0.232451,-1.224362 -0.04567,-0.537848 -0.0581,-1.075692 0.249055,-1.55232 a 0.38603247,0.40666348 0 0 0 0.08301,-0.196772 0.7886685,0.83081787 0 0 0 0.06227,-0.100561 c 0.493957,-1.093184 0.668295,-2.238837 0.477353,-3.436964 z m -7.214241,-1.35117 c -1.046025,-0.218638 -1.950917,-0.734618 -2.752038,-1.460492 -0.523011,-0.476625 -1.070929,-0.9139 -1.701864,-1.21999 -0.630935,-0.30609 -1.232813,-0.428527 -1.884501,-0.310463 -0.950554,0.17491 -1.593941,0.804582 -2.054691,1.661635 a 7.8327236,8.2513333 0 0 0 -0.713952,1.880271 c -0.203393,0.778345 -0.290561,1.569809 -0.203393,2.370018 a 4.3874873,4.6219709 0 0 0 1.095834,2.584282 4.1674904,4.3902165 0 0 0 0.576973,0.568454 c 0.03736,0.03061 0.08301,0.06995 0.128677,0.03499 0.04566,-0.03499 0.01661,-0.0962 -0.0042,-0.139928 -0.07056,-0.161788 -0.153567,-0.314831 -0.21998,-0.47225 -0.286411,-0.669028 -0.518861,-1.355547 -0.635086,-2.081418 a 4.5825794,4.8274893 0 0 1 -0.02076,-1.539199 c 0.170188,-1.158773 0.826027,-1.928372 1.801485,-2.426863 0.149432,-0.0787 0.157733,-0.06559 0.174339,0.08308 a 4.5659755,4.8099982 0 0 0 0.415087,1.530456 c 0.265658,0.581572 0.643388,1.058199 1.174702,1.390526 0.730558,0.459137 1.531677,0.533472 2.357704,0.459137 a 7.1270726,7.5079698 0 0 0 1.606395,-0.358565 c 0.103764,-0.03498 0.141128,-0.0175 0.136977,0.113692 -0.01245,0.40229 -0.09546,0.787091 -0.199242,1.167517 a 5.2508719,5.531498 0 0 1 -0.207544,0.559708 1.9135589,2.0158265 0 0 1 -0.103765,0.218635 c -0.377731,0.743366 -0.909046,1.338056 -1.548282,1.836547 a 6.8821703,7.249979 0 0 1 -1.386396,0.822073 c -0.05812,0.02624 -0.128677,0.03499 -0.149432,0.113691 a 0.07471596,0.07870905 0 0 0 0.04982,0.05247 0.48150286,0.50723616 0 0 0 0.19094,0.0044 11.651539,12.27424 0 0 0 1.548281,-0.323581 c 0.929799,-0.27111 1.818089,-0.634047 2.507138,-1.390527 0.07471,-0.0962 0.166034,-0.109324 0.273957,-0.08745 0.381882,0.06995 0.759611,0.139924 1.141494,0.201145 a 0.25320409,0.26673626 0 0 1 0.232449,0.218636 c 0.09962,0.397917 0.224149,0.787089 0.32792,1.185009 0.0415,0.170537 0.09132,0.336698 0.145281,0.502864 a 0.44829576,0.47225436 0 0 1 -0.0249,0.37168 7.2931081,7.6828789 0 0 0 -0.639236,2.593028 c -0.0042,0.06121 -0.01246,0.126805 0.04566,0.166162 l -0.03321,0.02624 a 0.47320109,0.49849072 0 0 0 -0.01661,0.201144 c 0.01661,0.441647 0.05812,0.874546 0.19094,1.294328 A 21.381219,22.52391 0 0 1 26.211127,37.2611 14.905834,15.702457 0 0 1 22.76174,36.482754 c -1.789014,-0.651583 -3.328993,-1.69229 -4.57426,-3.205255 a 10.642874,11.211669 0 0 1 -1.759975,-3.017182 c -0.373579,-0.931389 -0.614331,-1.897762 -0.788668,-2.890371 -0.107923,-0.603434 -0.157735,-1.211244 -0.09547,-1.827798 a 5.8984101,6.2136431 0 0 1 0.763753,-2.474963 c 0.601879,-1.101926 1.419602,-2.002706 2.357703,-2.79417 0.161883,-0.139929 0.336222,-0.266738 0.498105,-0.406664 0.03736,-0.03061 0.08718,-0.06559 0.0664,-0.122438 -0.02074,-0.05685 -0.07471,-0.05685 -0.124525,-0.06121 l -0.402636,-0.04372 c -0.672443,-0.06559 -1.340737,-0.08745 -2.009029,0.03499 -0.186792,0.03498 -0.199245,0.02624 -0.244903,-0.166166 -0.207545,-0.874544 -0.286412,-1.762207 -0.319619,-2.658616 -0.02075,-0.494119 0.0415,-0.983864 0.107925,-1.473609 a 6.4214221,6.7646067 0 0 1 0.232481,-1.05384 c 0.08718,0.148674 0.166035,0.279856 0.253205,0.402291 0.639236,0.909528 1.378094,1.722855 2.183366,2.474965 a 15.744314,16.585748 0 0 0 1.892804,1.530453 c 0.211696,0.1443 0.431694,0.279853 0.680747,0.349817 0.730555,0.209891 1.444508,0.454765 2.133554,0.78709 0.942252,0.454766 1.82224,0.996984 2.548647,1.797193 0.456595,0.502861 0.792819,1.071316 0.971306,1.740342 0.01661,0.06559 0.02076,0.135556 0.08301,0.179282 0.06227,0.04372 0.05812,-0.06122 0.0664,-0.10931 a 0.89244068,0.94013601 0 0 0 -0.0249,-0.275483 c -0.0084,-0.05685 -0.01661,-0.113691 -0.02905,-0.166163 -0.207543,-0.940137 -0.672443,-1.727228 -1.295077,-2.413745 -0.809423,-0.896409 -1.789032,-1.534826 -2.851658,-2.046435 -0.18679,-0.09183 -0.386033,-0.161792 -0.585276,-0.279855 a 7.2391465,7.6260333 0 0 1 1.104137,-0.441645 c 0.954703,-0.292973 1.926011,-0.424155 2.918073,-0.314837 1.30753,0.1443 2.461475,0.669027 3.474293,1.543572 0.09962,0.08308 0.09962,0.135556 0.0084,0.22301 a 2.9678841,3.1264988 0 0 0 -0.547918,0.690892 c -0.576972,0.961997 -0.84678,2.02457 -0.90074,3.157106 0,0.04372 0,0.09183 0,0.135554 0,0.04372 -0.01661,0.153046 0.06227,0.201145 0.09548,-0.05247 0.09962,-0.157419 0.124527,-0.244872 0.257355,-0.817699 0.589427,-1.596044 1.041871,-2.313171 0.219997,-0.349819 0.481504,-0.660283 0.830178,-0.892036 1.083381,-0.721501 1.739223,-1.766581 2.009028,-3.0784 0.107924,-0.533471 0.157735,-1.071317 0.08718,-1.617908 a 3.3746709,3.5550258 0 0 1 0.261506,0.467881 5.7282238,6.0343613 0 0 1 0.311317,0.892037 c 0.199241,0.773972 0.211694,1.565435 0.174337,2.361272 l 0.0249,0.03061 c -0.05397,0.03499 -0.03736,0.100582 -0.04567,0.153043 -0.09132,0.599064 -0.14528,1.202501 -0.294713,1.792818 -0.323769,1.259346 -0.979609,2.269445 -2.021481,2.990945 -0.394334,0.27111 -0.834329,0.446018 -1.266021,0.638419 -0.909044,0.397918 -1.842993,0.485372 -2.801848,0.284225 z m 5.993881,4.38147 a 6.8697175,7.2368608 0 0 1 -1.016969,1.416764 c -0.03321,0.03499 -0.09132,0.0656 -0.07472,0.126805 h -0.02076 c -0.0664,0.02185 -0.107923,0.07434 -0.153584,0.122437 a 5.2135143,5.4921438 0 0 1 -0.448294,0.437271 c -0.394335,0.336701 -0.801122,0.651537 -1.307529,0.822074 0.24075,-0.476627 0.369427,-0.979491 0.46905,-1.491099 0.03736,-0.201146 0.03321,-0.406665 0.07888,-0.603436 0.01661,-0.546592 0.03321,-1.08881 -0.0664,-1.631029 -0.03321,-0.196771 -0.04981,-0.397918 -0.09548,-0.59469 -0.04567,-0.196772 -0.06227,-0.288599 -0.09547,-0.428526 -0.03321,-0.139929 -0.04567,-0.196772 0.141132,-0.183655 0.639236,0.04811 1.120737,-0.262364 1.369791,-0.883292 0.116226,-0.288598 0.166036,-0.594689 0.207544,-0.905152 -0.03736,-0.231756 0.03321,-0.415409 0.211696,-0.55971 a 1.0377216,1.0931813 0 0 0 0.190942,-0.201144 c 0.08301,-0.118058 0.161883,-0.100581 0.249052,-0.0088 l 0.06227,0.07433 c 0.0415,0.06122 0.09547,0.109311 0.141131,0.16179 q 0.909045,1.084436 0.755462,2.523061 c -0.06227,0.564083 -0.257356,1.084437 -0.485655,1.591674 a 0.26565674,0.27985442 0 0 0 -0.0249,0.100561 v 0 c -0.05397,0.01313 -0.06227,0.07433 -0.08718,0.11369 z"
         id="path33" />
      <path
         style="fill:#e2e1e1;stroke-width:0.04260362"
         d="m 29.05038,32.188684 c 0.06227,0.214264 0.124526,0.428527 0.195091,0.638418 0.0249,0.07434 -0.01661,0.131183 -0.0415,0.1924 A 7.3221643,7.7134879 0 0 0 28.543975,35.665 c -0.0042,0.05685 0,0.113692 0,0.170536 -0.02906,0.524728 0.04982,1.036338 0.190942,1.556692 -0.481502,0.01311 -0.950554,0.0175 -1.423753,-0.0044 a 17.994094,18.955765 0 0 1 -2.033935,-0.205524 c -2.170916,-0.362936 -4.179943,-1.136908 -5.902562,-2.623636 -1.722618,-1.486726 -2.768643,-3.318898 -3.399575,-5.492141 -0.249054,-0.857055 -0.439995,-1.731601 -0.489805,-2.62801 -0.06227,-1.080064 0.161884,-2.10328 0.626784,-3.06528 0.510557,-1.0582 1.236962,-1.932745 2.071292,-2.715462 0.303014,-0.284228 0.618483,-0.546591 0.942251,-0.800209 l 0.120371,-0.104945 c -0.236599,-0.02624 -0.439993,-0.05685 -0.643388,-0.07434 -0.676593,-0.04372 -1.353188,-0.0787 -2.025631,0.0787 -0.08301,0.02186 -0.112069,-0.0044 -0.132828,-0.09183 -0.27811,-1.228736 -0.415089,-2.474962 -0.311316,-3.738682 0.04566,-0.572826 0.136978,-1.145653 0.332069,-1.70099 a 8.4346023,8.8853787 0 0 0 0.489805,0.743365 c 1.091683,1.46049 2.38676,2.684854 3.852023,3.721189 0.427542,0.301719 0.913196,0.406663 1.386398,0.564083 1.22451,0.415409 2.386759,0.953254 3.403726,1.801562 0.726407,0.607809 1.30753,1.329309 1.564885,2.291309 0.02075,0.07434 0.03321,0.153045 0.05397,0.231753 0.09132,-0.0044 0.03321,-0.06559 0.03321,-0.104945 l -0.02906,-0.271103 c 0.02906,-0.0962 -0.01661,-0.188026 -0.0084,-0.284226 0.0084,-0.0962 0.01661,-0.166164 0.132829,-0.118059 0.116226,0.04811 0.07471,-0.03498 0.08718,-0.07871 0.05397,-0.253617 0.112068,-0.507236 0.166035,-0.760853 a 0.85923358,0.9051542 0 0 1 0.02075,-0.100582 c 0.02076,-0.06122 0.0249,-0.153044 0.10378,-0.148671 0.07888,0.0044 0.07471,0.08745 0.08718,0.1443 0.07472,0.327955 0.145281,0.660282 0.224145,1.018845 0.03321,-0.08745 0.04981,-0.157419 0.07888,-0.218635 0.02906,-0.06122 0.03321,-0.07434 0.07888,-0.07434 0.04567,0 0.06227,0.04372 0.07057,0.08308 a 3.0010911,3.1614805 0 0 1 0.116227,0.537845 c 0.01246,-0.0175 0.01246,-0.0481 0.0249,-0.07433 0.01246,-0.02625 0.03736,-0.196773 0.132829,-0.188028 0.09547,0.0088 0.03321,0.131181 0.0664,0.192399 v 0.131183 c 0.0042,0.06995 -0.06227,0.148672 0.03321,0.205517 0.307167,-0.99698 0.689048,-1.95898 1.282624,-2.807289 a 2.6358131,2.7766808 0 0 1 0.705698,-0.686508 c 1.095834,-0.73899 1.735071,-1.805935 1.988275,-3.139617 a 5.4874725,5.7807434 0 0 0 0.07057,-1.622282 c 0.767913,1.176264 0.913194,2.496827 0.821875,3.874236 -0.08301,0.642791 -0.141129,1.289954 -0.303015,1.919627 -0.448295,1.76658 -1.481866,2.969079 -3.117314,3.607497 -0.448297,0.174909 -0.88829,0.362936 -1.365643,0.432901 -1.124891,0.170535 -2.179214,-0.06995 -3.175428,-0.616554 A 6.9527354,7.3243154 0 0 1 24.131591,23.39507 c -0.659992,-0.616554 -1.382246,-1.119418 -2.249781,-1.338054 -1.124889,-0.284226 -2.050538,0.08745 -2.797698,1.001354 -0.386032,0.472254 -0.61018,1.031963 -0.821875,1.60479 -0.290562,0.782719 -0.481503,1.591672 -0.502258,2.43998 -0.03736,1.635401 0.556219,2.955964 1.780731,3.979181 0.02907,-0.06559 -0.01661,-0.100571 -0.03321,-0.139926 a 8.6712026,9.1346237 0 0 1 -0.846781,-2.457471 0.76376319,0.80458153 0 0 1 -0.0084,-0.100582 c 0.08301,-0.01311 0.120372,0.06122 0.170186,0.109312 0.132829,0.131183 0.249053,0.275484 0.402635,0.406664 0.07888,-0.201146 0.132829,-0.397918 0.190941,-0.590318 0.05812,-0.192399 0.124527,-0.376053 0.190941,-0.559708 0.01661,-0.0481 0.03321,-0.109325 0.08718,-0.113692 0.05397,-0.0044 0.07887,0.06995 0.09132,0.122438 0.0664,0.314837 0.132828,0.629672 0.195091,0.944509 l 0.157734,0.765226 c 0.0084,0.04811 0.0042,0.118058 0.05812,0.131183 0.05397,0.01313 0.07888,-0.04811 0.11207,-0.08308 0.153582,-0.157417 0.303015,-0.32358 0.456597,-0.476626 0.04981,-0.04811 0.09547,-0.118059 0.17849,-0.07434 a 0.17433725,0.18365448 0 0 1 0.0415,0.139927 c 0,0.489745 0.0084,0.97949 -0.0042,1.464864 0.315468,-0.494116 0.618483,-0.988235 0.929798,-1.486728 a 0.52716265,0.55533617 0 0 1 0.09962,-0.131181 c 0.0415,-0.03498 0.07888,-0.03936 0.09962,0.02186 0.02906,0.472254 0.0042,0.948881 0.01246,1.421135 0.0042,0.16179 -0.02076,0.327956 0.01245,0.485373 0.207544,-0.170535 0.373579,-0.389172 0.56867,-0.577199 0.05812,-0.05686 0.107924,-0.157419 0.195092,-0.118058 0.08718,0.03936 0.05396,0.148672 0.05396,0.231752 0.0084,0.218639 -0.0084,0.437275 0.0084,0.655911 0.0664,0.01311 0.09962,-0.03498 0.136978,-0.06122 0.452447,-0.35419 0.913195,-0.704009 1.369792,-1.053825 l 0.05396,-0.03936 c 0.124526,-0.08308 0.170184,-0.0612 0.178486,0.100581 0.0084,0.16179 -0.0042,0.284228 0.0084,0.450389 a 2.3992125,2.5274354 0 0 0 0.273985,-0.222968 l 0.693196,-0.581572 c 0.05396,-0.04372 0.09962,-0.104944 0.182641,-0.08308 -0.273959,0.599063 -0.680746,1.093181 -1.153947,1.530452 -0.576973,0.533474 -1.241116,0.92702 -1.950917,1.228736 -0.01661,0.04372 0,0.04811 0.03321,0.03498 1.124892,-0.126803 2.216577,-0.389164 3.233543,-0.935755 a 3.8395704,4.0447713 0 0 0 0.987912,-0.787091 c 0.06227,-0.02624 0.116226,0.0044 0.170186,0.02624 0.336222,0.153046 0.676593,0.288601 1.016966,0.428527 a 0.32792005,0.34544532 0 0 1 0.149433,0.0962 c 0.215845,0.279855 0.431691,0.56408 0.643387,0.848308 0.0249,0.04372 0.03321,0.0962 0.06227,0.135554 z"
         id="path35" />
      <path
         style="fill:#eeeded;stroke-width:0.04260362"
         d="m 28.589629,23.132769 c -0.05397,-0.04372 -0.04567,-0.118058 -0.08301,-0.188028 -0.05397,0.113691 -0.07888,0.231756 -0.157735,0.336701 L 28.195302,22.60367 h -0.03736 l -0.124528,0.37168 h -0.03321 l -0.282261,-1.25497 h -0.04567 l -0.253204,1.17189 c -0.03321,0.01311 -0.04567,-0.01313 -0.0664,-0.0306 -0.02074,-0.0175 -0.04567,-0.07433 -0.09131,-0.05247 -0.04567,0.02186 -0.02076,0.06996 -0.0249,0.104945 -0.0042,0.03498 0.02906,0.1924 -0.0249,0.279854 -0.174333,-0.983863 -0.647535,-1.801562 -1.286771,-2.514316 -0.929797,-1.04071 -2.083745,-1.7316 -3.320709,-2.282562 l -0.190941,-0.08745 c -0.0042,0 -0.0042,-0.0088 -0.0042,-0.01313 2.220725,-1.180638 5.421059,-1.338055 7.76216,0.892035 -0.315468,0.257992 -0.55207,0.590319 -0.755463,0.944508 -0.452446,0.787092 -0.693196,1.644146 -0.784516,2.553673 -0.01661,0.153046 -0.02905,0.301718 -0.0415,0.446016 z"
         id="path37" />
      <path
         style="fill:#747170;stroke-width:0.04260362"
         d="m 27.240592,23.469469 a 0.27395853,0.28859989 0 0 1 0.02075,0.196771 c -0.0664,-0.0044 -0.05812,-0.05248 -0.05396,-0.09183 0.0042,-0.03936 0.01661,-0.06996 0.03321,-0.104943 z"
         id="path39" />
      <path
         style="fill:#6e6b6a;stroke-width:0.04260362"
         d="m 28.622838,23.469469 a 0.04150885,0.04372725 0 0 1 -0.0249,0.05247 c -0.02906,0.01313 -0.03736,-0.0088 -0.03321,-0.03499 0.0042,-0.02624 -0.0084,-0.153043 0.0249,-0.22738 0.02906,0.06995 -0.01661,0.148673 0.03321,0.209891 z"
         id="path41" />
      <path
         style="fill:#eeeded;stroke-width:0.04260362"
         d="m 20.902189,28.957239 c -0.215847,0.223009 -0.431694,0.441645 -0.643388,0.664656 -0.07888,0.08308 -0.116227,0.104944 -0.145281,-0.03936 -0.120372,-0.607808 -0.249053,-1.211244 -0.373581,-1.814681 -0.0084,-0.03936 -0.02076,-0.07433 -0.04567,-0.144299 -0.186792,0.454763 -0.303015,0.905156 -0.456597,1.355544 L 18.644099,28.37567 c -0.290561,-1.709735 0.166037,-3.253309 1.901108,-4.079754 0.116226,-0.05685 0.124527,-0.0088 0.132829,0.0962 0.08301,0.852679 0.323768,1.648517 0.850931,2.317542 0.527164,0.669028 1.149797,0.970746 1.909407,1.084438 0.950555,0.139926 1.87205,-0.05248 2.776944,-0.341074 0.174337,-0.05685 0.170186,-0.05685 0.161884,0.135556 a 4.5037123,4.7444073 0 0 1 -0.215845,1.228735 c -0.141131,0.122438 -0.315467,0.08745 -0.477352,0.11369 a 5.8153925,6.1261887 0 0 1 -0.88414,0.06121 c -1.120739,-0.0044 -2.212422,-0.144301 -3.171277,-0.835192 a 3.2210881,3.3932349 0 0 1 -0.909042,-0.975119 1.539979,1.6222811 0 0 1 -0.219998,-0.542219 c -0.02076,-0.04372 -0.02076,-0.0962 -0.0415,-0.139927 0.01661,0.05685 0.0249,0.109325 0.04567,0.166165 0.224147,0.88329 0.730556,1.521707 1.502621,1.937116 0.772065,0.415409 1.515073,0.568455 2.320346,0.651535 0.477352,0.0481 0.954704,0.03061 1.432055,0.03499 0.0664,0 0.166035,-0.03936 0.19094,0.08308 a 0.5064082,0.53347254 0 0 1 -0.09962,0.196774 l -1.199607,0.983862 c 0,-0.196771 0,-0.371682 0,-0.542219 0,-0.03936 0.01661,-0.08745 -0.02075,-0.109311 -0.03736,-0.02186 -0.0664,0.02186 -0.09131,0.04372 l -1.465264,1.128167 c -0.04566,0.03499 -0.09132,0.104945 -0.149432,0.06995 -0.05812,-0.03499 -0.01661,-0.104944 -0.02076,-0.161791 -0.0042,-0.231754 0,-0.463509 0,-0.695265 0,-0.0306 0.0084,-0.0787 -0.03321,-0.08308 -0.0415,-0.0044 -0.04982,0.0175 -0.0664,0.03936 l -0.676601,0.725878 c -0.09132,-0.02624 -0.04567,-0.100581 -0.04567,-0.153045 -0.0042,-0.577199 0,-1.150028 -0.0042,-1.727228 0,-0.05247 0.02076,-0.113691 -0.01661,-0.161789 -0.24075,0.292971 -0.402635,0.634045 -0.610179,0.94888 -0.207544,0.314836 -0.323768,0.502863 -0.485655,0.752108 -0.03735,-0.183653 -0.01245,-0.37168 -0.01661,-0.555335 -0.0042,-0.327952 0,-0.655908 -0.0042,-0.983864 0.0042,-0.04372 0.04981,-0.122437 -0.0415,-0.131181 z"
         id="path43" />
      <path
         style="fill:#bdbab9;stroke-width:0.04260362"
         d="m 30.370362,27.934022 -0.170187,-0.690891 c 0.199244,0.02624 0.386031,0.06122 0.572821,0.03061 0.506409,-0.07433 0.830179,-0.384799 1.025271,-0.870171 0.112068,-0.284227 0.153582,-0.585947 0.195091,-0.887663 a 0.36527806,0.38479988 0 0 1 0.09132,-0.118058 c 0.170188,-0.161791 0.356978,-0.306091 0.498109,-0.507238 0.03735,-0.05247 0.08301,-0.144299 0.182638,-0.09183 1.000364,1.066946 1.166399,2.313172 0.701499,3.690581 a 4.1550375,4.3770982 0 0 1 -0.286411,0.660282 c -0.09547,0 -0.103766,-0.08308 -0.128676,-0.148672 -0.02491,-0.06559 -0.0664,-0.227381 -0.13283,-0.358564 -0.09962,0.236129 -0.199241,0.450392 -0.307165,0.660284 -0.0415,0.08308 -0.05812,0.223007 -0.153582,0.214262 -0.09548,-0.0088 -0.08718,-0.161793 -0.112082,-0.253619 -0.0249,-0.09183 -0.0664,-0.275481 -0.09132,-0.428526 a 0.219997,0.23175445 0 0 0 -0.07057,0.109311 c -0.2366,0.520355 -0.506407,1.023218 -0.751308,1.543572 a 0.7679141,0.80895429 0 0 1 -0.03736,0.07433 c -0.07471,0.122437 -0.141128,0.131181 -0.195092,0.0044 -0.05396,-0.126805 -0.09962,-0.104945 -0.161882,-0.0044 -0.06227,0.100572 -0.195093,0.314837 -0.294715,0.467881 -0.0249,0.03498 -0.05397,0.0787 -0.103766,0.06559 -0.04982,-0.01312 -0.07057,-0.06559 -0.07471,-0.118059 -0.02907,-0.257991 -0.06227,-0.51598 -0.03321,-0.778344 0.01246,-0.564083 0.02076,-1.128164 -0.06227,-1.687874 -0.04566,-0.122436 0.01246,-0.166162 0.120371,-0.19677 0.518863,-0.131183 0.92565,-0.450394 1.282626,-0.852681 0.0084,-0.01312 0.01661,-0.02624 0.03321,-0.03061 0.01661,-0.0044 -0.03736,0.03936 -0.05812,0.05685 -0.257353,0.292974 -0.597727,0.411037 -0.954704,0.481 a 1.4984701,1.5785539 0 0 1 -0.352824,0.03936 c -0.0664,0 -0.13283,-0.0044 -0.170185,-0.07434 z"
         id="path45" />
      <path
         style="fill:#fab937;stroke-width:0.04260362"
         d="m 27.074557,28.480612 c -0.0249,-0.415408 -0.03321,-0.83519 -0.03321,-1.254971 a 0.22414789,0.23612717 0 0 1 0.06227,-0.161792 c 0.182638,-0.227381 0.377729,-0.450389 0.535464,-0.699635 a 0.12037572,0.12680905 0 0 1 0.116228,-0.0656 l 0.481502,0.0088 c 0.145281,0.126804 0.211695,0.314836 0.294714,0.480999 0.485654,0.970745 0.84263,1.985219 1.016966,3.069654 a 9.1485551,9.6374877 0 0 1 0.120371,1.403643 1.3946978,1.4692358 0 0 1 -0.07888,0.46351 c -0.182638,-0.467842 -0.369427,-0.931352 -0.614329,-1.364251 -0.178488,-0.209891 -0.303014,-0.46351 -0.473202,-0.682146 -0.373578,-0.476626 -0.784518,-0.896408 -1.344886,-1.12379 a 0.18263901,0.19239992 0 0 1 -0.08301,-0.07433 z"
         id="path47" />
      <path
         style="fill:#fab937;stroke-width:0.04260362"
         d="m 26.717579,26.770877 c -0.448295,0.327954 -0.958855,0.498491 -1.486015,0.603437 -0.693199,0.135553 -1.386396,0.139925 -2.071294,-0.07871 -1.137343,-0.362935 -1.77658,-1.185009 -1.996575,-2.396251 -0.02075,-0.109326 -0.04981,-0.223011 -0.03321,-0.336702 0.07057,-0.02186 0.107923,0.03499 0.153582,0.06995 0.581126,0.424154 1.199606,0.769601 1.838844,1.080064 0.05397,0.02625 0.107924,0.04811 0.136979,0.113691 0.05396,0.161791 0.08718,0.327954 0.161884,0.476627 q 0.282262,0.555337 0.767915,0.1924 c 0.05812,-0.04372 0.107923,-0.09183 0.166034,-0.135555 0.05811,-0.04372 0.103779,0.02186 0.149433,0.04811 0.211694,0.118058 0.439994,0.126805 0.668294,0.122438 0.03736,0 0.02906,-0.03936 0.05397,-0.04811 a 0.24075144,0.25361808 0 0 1 0.14113,0 c 0.398485,0.0962 0.801122,0.15742 1.207907,0.214263 0.04982,0.0044 0.120371,-0.01312 0.141131,0.07433 z"
         id="path49" />
      <path
         style="fill:#a3a1a0;stroke-width:0.04260362"
         d="m 30.528096,30.20784 c -0.0042,0.262362 0.0581,0.515981 0.07057,0.773972 0,0.03936 0,0.08745 0.04567,0.0962 0.04567,0.0088 0.04567,-0.03936 0.0664,-0.06559 0.120372,-0.188027 0.244904,-0.371681 0.356978,-0.564082 0.05812,-0.100582 0.09132,-0.09183 0.132827,0.0088 0.0415,0.100582 0.0249,0.174909 0.09962,0.174909 0.07471,0 0.07888,-0.109311 0.107923,-0.174909 l 0.784521,-1.617951 c 0.01661,-0.03498 0.02075,-0.0787 0.07887,-0.0962 l 0.174337,0.826446 0.469051,-1.014473 c 0.07887,0.144299 0.116225,0.2886 0.166036,0.4329 0.02074,0.06559 0.03321,0.131181 0.09547,0.170536 l -0.0249,0.07434 a 8.5632798,9.0209333 0 0 1 -1.187154,1.666008 c -0.402638,0.402262 -0.809427,0.791434 -1.286778,1.093154 a 2.631662,2.7723079 0 0 1 -0.7098,0.332326 6.8282086,7.1931334 0 0 0 0.340373,-0.909528 c 0.112068,-0.393544 0.166035,-0.80021 0.219996,-1.20687 z"
         id="path51" />
      <path
         style="fill:#bf8f38;stroke-width:0.04260362"
         d="m 29.594146,31.725175 c 0.09962,-1.150027 -0.103778,-2.260698 -0.448298,-3.340763 a 9.0489336,9.5325422 0 0 0 -0.855081,-1.954608 0.93394952,0.98386325 0 0 1 -0.05396,-0.122437 c 0.199241,-0.0044 0.398486,0 0.597727,-0.0088 0.09547,-0.0044 0.128678,0.05686 0.166035,0.126806 a 6.6704753,7.0269702 0 0 1 0.830178,2.544926 6.2263302,6.5590884 0 0 1 -0.174338,2.671736 1.0377216,1.0931813 0 0 1 -0.04566,0.118057 l -0.01246,-0.0088 a 0.28226033,0.29734536 0 0 1 -0.0042,-0.02624 z"
         id="path53" />
      <path
         style="fill:#b4b2b2;stroke-width:0.04260362"
         d="m 25.949667,29.368276 c -0.174336,-0.08745 -0.356977,-0.02624 -0.535465,-0.03499 -0.286411,-0.01312 -0.576972,0.01312 -0.867535,-0.01312 -0.527162,-0.04372 -1.054326,-0.113692 -1.564884,-0.27111 -0.693199,-0.209891 -1.349039,-0.507236 -1.855446,-1.071318 -0.336223,-0.376054 -0.576973,-0.813326 -0.647539,-1.338052 -0.01245,-0.03499 0.0042,-0.04372 0.03321,-0.03061 0.2283,0.70838 0.693198,1.215617 1.278474,1.600417 0.585275,0.384798 1.31168,0.590318 2.033933,0.677771 0.722256,0.08745 1.452812,0.03499 2.179216,-0.03936 a 1.5150738,1.5960449 0 0 0 0.157735,-0.03498 2.9180733,3.0740259 0 0 1 -0.211696,0.555335 z"
         id="path55" />
      <path
         style="fill:#bf8f38;stroke-width:0.04260362"
         d="m 23.259892,25.826369 c -0.659991,-0.314838 -1.307529,-0.660282 -1.905258,-1.093183 l -0.219996,-0.166162 c -0.07057,-0.284229 -0.02075,-0.572828 -0.03736,-0.887666 l 0.332071,0.236129 a 14.74395,15.531921 0 0 0 1.59394,0.957627 c 0.09547,0.0481 0.141131,0.113692 0.141131,0.218637 0,0.244871 0.05397,0.489744 0.09546,0.734618 z"
         id="path57" />
      <path
         style="fill:#ce9036;stroke-width:0.04260362"
         d="m 27.074557,28.480612 c 0.88829,0.341074 1.452811,1.045082 1.905257,1.880273 -0.585276,-0.170537 -1.1747,-0.345447 -1.759974,-0.507237 -0.10378,-0.03061 -0.14113,-0.07434 -0.14113,-0.183654 0,-0.397919 -0.0042,-0.795837 -0.0042,-1.189382 z"
         id="path59" />
      <path
         style="fill:#bf8f38;stroke-width:0.04260362"
         d="m 26.717579,26.770877 c -0.332069,-0.05247 -0.659989,-0.113692 -0.99206,-0.16179 -0.178489,-0.02624 -0.348673,-0.100582 -0.535464,-0.100582 a 0.10792306,0.11369086 0 0 1 -0.07057,-0.01311 C 24.95345,26.359836 24.774961,26.259264 24.563266,26.233029 A 0.06641419,0.06996362 0 0 1 24.501,26.18492 3.4161796,3.5987529 0 0 0 24.812315,25.773883 c 0.03321,-0.04811 0.05811,-0.104947 0.13698,-0.07434 a 12.232663,12.886421 0 0 0 2.166764,0.550964 l 0.08301,0.02185 a 1.4154523,1.4910993 0 0 1 -0.481504,0.498494 z"
         id="path61" />
      <path
         style="fill:#dea539;stroke-width:0.04260362"
         d="m 31.669588,25.795759 a 1.9426151,2.0464355 0 0 1 -0.402635,0.839563 c -0.27811,0.345446 -0.697349,0.450391 -1.079232,0.275481 -0.06227,-0.03061 -0.132826,-0.05685 -0.136978,-0.153044 0.153584,-0.03498 0.28226,-0.104945 0.323769,-0.284228 0.0415,-0.17928 0.08718,-0.244873 0.240751,-0.2886 a 3.8727777,4.0797533 0 0 0 0.921499,-0.397918 c 0.0664,-0.04372 0.07057,-0.03936 0.132826,0.0088 z"
         id="path63" />
      <path
         style="fill:#cbc9c8;stroke-width:0.04260362"
         d="M 29.05038,32.188684 C 28.793024,31.886966 28.560573,31.567756 28.323974,31.248548 A 0.25735497,0.27110898 0 0 0 28.207747,31.1611 l -1.203756,-0.507238 c 0.05812,-0.126806 0.149433,-0.1443 0.27811,-0.118059 0.415089,0.08308 0.834329,0.153043 1.253568,0.218637 0.09132,0.01311 0.13698,0.04811 0.161883,0.148672 0.116228,0.432899 0.257356,0.852682 0.352828,1.285582 z"
         id="path65" />
      <path
         style="fill:#949191;stroke-width:0.04260362"
         d="m 31.897889,27.457394 c -0.327921,0.476628 -0.776217,0.760854 -1.307532,0.909528 -0.09546,0.02624 -0.124525,0.06123 -0.120371,0.153044 l -0.09547,-0.581572 c 0.298865,0.08308 0.581126,-0.01311 0.863387,-0.100562 0.282258,-0.08745 0.431691,-0.218637 0.622631,-0.376054 a 0.02075444,0.02186363 0 0 1 0.03736,-0.0044 z"
         id="path67" />
      <path
         style="fill:#ac8238;stroke-width:0.04260362"
         d="m 31.669588,25.795759 c -0.02076,-0.0306 -0.04982,-0.0175 -0.07057,0 -0.298864,0.196773 -0.626784,0.323582 -0.958855,0.428527 -0.132829,0.04372 -0.244903,0.08308 -0.261506,0.249245 -0.0498,-0.271108 0.0581,-0.397918 0.311317,-0.476625 0.386032,-0.122439 0.722255,-0.362937 1.07093,-0.616556 a 1.0916833,1.1500269 0 0 1 -0.09132,0.415409 z"
         id="path69" />
      <path
         style="fill:#949190;stroke-width:0.04260362"
         d="m 32.761273,24.803151 c -0.09548,0.0044 -0.136979,0.08745 -0.18264,0.148673 -0.161884,0.227381 -0.377731,0.393545 -0.585275,0.56408 -0.02905,-0.223009 0.01661,-0.406664 0.199243,-0.546591 a 1.3739435,1.4473721 0 0 0 0.257354,-0.279854 c 0.07057,-0.09183 0.124527,-0.104946 0.199243,-0.0088 a 1.3905471,1.4648631 0 0 0 0.112081,0.122436 z"
         id="path71" />
      <path
         style="fill:#fdfcfa;stroke-width:0.04260362"
         d="m 25.131942,26.46916 0.05812,0.03499 c 0.04981,0.0962 -0.02907,0.06995 -0.0664,0.07433 -0.27811,0.0088 -0.543768,-0.03498 -0.772067,-0.218636 l -0.05812,-0.09183 c 0.0042,-0.08308 0.05396,-0.04372 0.08718,-0.03936 a 2.7935467,2.9428441 0 0 1 0.751311,0.240501 z"
         id="path73" />
      <path
         style="fill:#bfbcbb;stroke-width:0.04260362"
         d="m 25.131942,26.46916 -0.709803,-0.196775 c -0.0415,-0.0088 -0.08301,-0.06559 -0.128676,-0.0044 -0.03736,-0.03499 -0.04981,-0.06559 0.01661,-0.06995 l 0.190943,-0.01311 c 0.24075,0.0175 0.460747,0.100561 0.630934,0.284228 z"
         id="path75" />
      <path
         style="fill:#767473;stroke-width:0.04260362"
         d="m 22.78254,32.363592 c -0.02906,0.0175 -0.0664,0.05247 -0.08718,0 -0.02075,-0.05247 0.0249,-0.04372 0.05397,-0.03498 z"
         id="path77" />
      <path
         style="fill:#d8d8d7;stroke-width:0.04260362"
         d="m 22.064438,28.922258 c 0.0664,0.03061 0.02905,0.09183 0.03321,0.135555 0.0042,0.577198 0,1.154399 0.0042,1.731598 0,0.06121 -0.02076,0.126804 0.03321,0.174909 -0.01661,0.02185 -0.03321,0.07433 -0.06227,0.0175 -0.02906,-0.05685 -0.0042,-0.08745 -0.0042,-0.135555 q -0.0042,-0.961998 -0.0042,-1.923998 z"
         id="path79" />
      <path
         style="fill:#dbd9d9;stroke-width:0.04260362"
         d="m 20.902189,28.957239 c 0.03321,-0.05247 0.06227,-0.0787 0.0664,0.01313 0.0042,0.09183 0,0.214263 0,0.31921 q 0,0.664652 0,1.333681 a 0.11207394,0.11806359 0 0 1 0.0084,0.0306 c 0,0.02186 -0.02075,0.03061 -0.0249,0.01312 a 0.65168924,0.68651794 0 0 1 -0.01661,-0.148674 c 0,-0.46351 0,-0.927018 0,-1.390528 0,-0.05685 0.02076,-0.122436 -0.03321,-0.170536 z"
         id="path81" />
      <path
         style="fill:#cfcdcd;stroke-width:0.04260362"
         d="m 20.512005,26.609087 -0.03321,0.0306 c -0.0415,-0.03936 -0.03736,-0.08745 -0.02075,-0.144301 0.0415,0.03061 0.03736,0.0787 0.05397,0.113692 z"
         id="path83" />
      <path
         style="fill:#a19f9e;stroke-width:0.04260362"
         d="m 31.897889,27.457394 h -0.03736 l 0.116226,-0.144298 a 0.14113016,0.14867268 0 0 1 -0.07888,0.144298 z"
         id="path85" />
    </g>
  </g>
</svg>
