<svg id="Layer_1" data-name="Layer 1" xmlns="http://www.w3.org/2000/svg" width="23.1in" height="8in" viewBox="0 0 1666 577"><title>Artboard 6</title><path d="M1413.6,438.2l4-8.2-.2-45.6-35.3,20-6.1,3.4h-.1l-12.9,7.3-80.1-64-80.4,48.6-57.8-40.8-30.9-21.2L1052,367.9l-25.9,12.7-82-50.4c-28.9,16.7-52.2,30.3-74.7,43.5l-13.4,7.9-13-8.4c-25.3-16.3-52.6-33.8-86.1-55l-.3-.2-1.4.9c-33.1,20.9-63.3,40.3-92.3,59.5l-39.2,25.9.2-78.1c-30.8,19.9-59.5,39.1-87.5,58.4l-13.3,9.2-13.9-8.3c-23.5-14.1-45.2-27.3-66.1-40.1-25.7,18.3-49.8,36-73.4,53.9l-13.6,10.3-14.6-8.8-36.4-22.1-.2,40.6L317.5,468l14.3,56.6-50.9-28.4c-40.5-22.6-77.1-43.7-112.1-64.6l-2.6-1.5c-32.4-19.2-62.8-37.9-92.7-57L46.8,355.8l26.9-26.1.2-223.5L53.2,80.7,20.5,39.8H1607L1573,81l-20.3,24.4L1553,242c24.5,2.3,49.1,4.7,73.4,7.2l22.6,2.3V375l-11.3,7.5c-50.3,33.2-103.5,66.1-162.6,100.5l-4.1,2.4-3.7,2.2-117.2,68.2ZM550.8,202.7c24-.9,48-1.6,71.6-2.3h2v-7.2h-.7l-72.9,1.5Z" fill="#fbb040"/><path d="M1626.3,261.7c-28-2.9-56.5-5.7-84.7-8.2l-.3-152.7,23.2-27.8,17-20.6H47.8L64.1,72.8c7.7,9.6,15.6,19.3,23.4,28.9L87.3,335l-7.9,7.7L68.1,353.8l13.4,8.5c29.8,19,60,37.6,92.4,56.8l2.6,1.5c34.8,20.8,71.3,41.9,111.7,64.4l25.5,14.2-7.2-28.3-12.7-50.3.3-64.6c18.1,11.2,36.6,22.5,55.3,33.7l7.3,4.4,6.8-5.1c25.7-19.5,52.1-38.9,80.5-58.9,23,14.1,47,28.7,73.1,44.4l6.9,4.2,6.7-4.6c31.9-21.9,64.7-43.7,100.3-66.6l5.8-3.7h0l1.3-.8-.2,77.8,19.6-12.9c29-19.2,59.3-38.7,92.5-59.6l3.4-2.1h0l.6-.4,1.9-1.2h0l3.4-2.2v1.5l5.9,3.7c33.5,21.2,60.9,38.7,86.2,55l6.5,4.2,6.7-3.9c23.9-14.1,49.2-28.8,81.1-47.3l4,2.3,78.6,48.3,19.7-9.6,38.4-18.8,29.8-14.6c12.8,8.6,25.1,17.1,37.1,25.4l51.1,36,77-46.6,3.9-2.3,1.9,1.4,78.4,62.7,11.7-6.6h.2c18.3-10.3,36.4-20.6,53.9-30.8l.3,70.2-5.4,11.1-42.4,78.4,78.6-45.7h0l7.8-4.5c58.9-34.3,111.9-67.1,162-100.2l5.6-3.7V262.9Z" fill="#231f20"/><path d="M266.7,90.2l-1.3,335.6,4.6,18.2q-34.6-19.8-69.1-40.4l3.1-5.3V373.7Q187,323.1,169.9,271l-.2,107.4-1.5,5.1v.5q-28.9-17.5-57.8-35.9l3.1-2.9q.1-126.6.3-253.3L103.3,79.4l67-.4v5.9q17.1,50.3,34.2,99.1l.3-105.3,72.2-.4Z" fill="#fff"/><path d="M418.2,77.7l23.1,19.9-.9,203.2q-42.7,29.9-85.3,61.9-35.7-21.6-71.3-44.1l.9-217.8,22.3-22.6Zm-74.5,54.9-.6,143.2,34.4,23.3.8-167.4Z" fill="#fff"/><path d="M545.8,157.3V128.7l-34.6.5-.6,136.1,34.5,23,.2-48,63-2.2-.2,53.4q-42.7,27.6-85.5,56.8-35.8-21.7-71.5-43.7l.9-205.6,22.3-21.4,111.4-.3,23.1,19.2-.2,59.8Z" fill="#fff"/><path d="M727.5,135.3,727.2,292q-31.6,20-63.2,40.6l.6-196.8-44.9.5.2-59.2L773,76.9V135Z" fill="#fff"/><path d="M879.2,76.8h62.9l.3,210.4q-42.6,24.7-85.4,49.8-36-23.2-71.9-46,.1-107.1.2-214.2h59.3q0,90,0,180l34.7,23.9Q879.2,178.8,879.2,76.8Z" fill="#fff"/><path d="M1090.1,77.1l19.7,20.2.3,75.5-40.2,17.5,40.3,19.8.3,86.6-63,31-.3-94.6-34.7-18.5.3,113.5q-29.8-18.5-59.6-36.4l-.3-198,16-16.8Zm-77.7,47.5v40.9l34.5-16.5V124.9Z" fill="#fff"/><path d="M1184.1,240l.4,100.7q-31.6-22.2-63.2-43.5l-.9-220,63.9.2q16.9,42.1,33.9,85l-.4-84.9,59.3.2,1.1,230.5q-28.8,17.7-57.6,35.1Q1202.4,291.1,1184.1,240Z" fill="#fff"/><path d="M1348.2,265.4l.4,89.4q-29.7-24.1-59.5-47l-1-208.4,22.1-21.5,111.3.5,23.3,21.5.8,222.1q-31.3,18.6-62.6,36.4l-.4-90.5Zm34.3-52.7-.3-79.3-34.5-.9.3,78.4Z" fill="#fff"/><path d="M1512.8,91.1l.6,234.5q17.2-10.7,34.3-21.8V280.9l61.6,6.4q0,32.5,0,65c-52,34.3-104,66.3-156,96.8l4.1-8.4-1.2-350.2-10.3-12,77.3.5Z" fill="#fff"/><g opacity="0.07"><path d="M266.7,90.2l-1.3,335.6L270,444q-34.6-19.8-69.1-40.4l3.1-5.3V373.7Q187,323.1,170,271l-.2,107.4-1.5,5.1v.5q-28.9-17.5-57.8-35.9l3.1-2.9q.1-126.6.3-253.3L103.4,79.4l67-.4v5.9q17.1,50.3,34.2,99.1l.3-105.3,72.2-.4Z"/><path d="M418.3,77.7l23.1,19.9-.9,203.2q-42.7,29.9-85.3,61.9-35.7-21.6-71.3-44.1l.9-217.8L307,78.2Zm-74.5,54.9-.6,143.2,34.4,23.3.8-167.4Z"/><path d="M545.9,157.3V128.7l-34.6.5-.6,136.1,34.5,23,.2-48,63-2.2-.2,53.4q-42.7,27.6-85.5,56.8-35.8-21.7-71.5-43.7l.9-205.6,22.3-21.4,111.4-.3L609,96.3l-.2,59.8Z"/><path d="M727.6,135.3,727.3,292q-31.6,20-63.2,40.6l.6-196.8-44.9.5.2-59.2,153.1-.2V135Z"/><path d="M879.3,76.8h62.9l.3,210.4q-42.6,24.7-85.4,49.8-36-23.2-71.9-46,.1-107.1.2-214.2h59.3q0,90,0,180l34.7,23.9Q879.3,178.8,879.3,76.8Z"/><path d="M1090.2,77.1l19.7,20.2.3,75.5-40.2,17.5,40.3,19.8.3,86.6-63,31-.3-94.6-34.7-18.5.3,113.5q-29.8-18.5-59.6-36.4l-.3-198,16-16.8Zm-77.7,47.5v40.9l34.5-16.5V124.9Z"/><path d="M1184.2,240l.4,100.7q-31.6-22.2-63.2-43.5l-.9-220,63.9.2q16.9,42.1,33.9,85l-.4-84.9,59.3.2,1.1,230.5q-28.8,17.7-57.6,35.1Q1202.5,291.1,1184.2,240Z"/><path d="M1348.3,265.4l.4,89.4q-29.7-24.1-59.5-47l-1-208.4,22.1-21.5,111.3.5,23.3,21.5.8,222.1q-31.3,18.6-62.6,36.4l-.4-90.5Zm34.3-52.7-.3-79.3-34.5-.9.3,78.4Z"/><path d="M1512.9,91.1l.6,234.5q17.2-10.7,34.3-21.8V280.9l61.6,6.4q0,32.5,0,65c-52,34.3-104,66.3-156,96.8l4.1-8.4-1.2-350.2-10.3-12,77.3.5Z"/></g></svg>