<svg id="Layer_1" data-name="Layer 1" xmlns="http://www.w3.org/2000/svg" width="8in" height="6.6in" viewBox="0 0 572.7 475.5"><title>white-brand-logo</title><path d="M509.7,145.3c3.5,43.6-3.2,85.6-20.5,125.1L508.8,282l-.6,1.7L481.9,289v1.6c14.5-1.2,28.3-.2,38.7,11.4l-50,4.4c4,6.8,7.8,12.1,10.4,17.9s4,12.2,6.3,19.5l-23.3-9-.4-.3c-10.2-3.5-10-3.4-17,5.4-4.6,5.8-9.6,11.2-14.6,16.6s-11.5,11.6-17.3,17.4c-22.6,22.9-48.1,42.1-75.1,59.1-16.4,10.3-33.7,19.2-50.8,28.3-2,1.1-5.7.7-8-.4a463.9,463.9,0,0,1-91.1-57c-9.5-7.6-18.7-15.5-27.6-23.8s-17.5-17-25.9-25.9a188.1,188.1,0,0,1-16-19.1c-2.4-3.3-4.7-3.4-7.7-2.3l-29,10.7c3-13.1,6.7-25.4,15.9-35.6l-.4-1.6-49.4-4.2c10.6-11.5,24.4-12.7,39-12.6l-26.7-5.8c4.7-6.4,11.7-9.8,19.8-12.2A275.7,275.7,0,0,1,63,209.7c-3.9-21.5-2.9-43.2-2.8-66.2l7.2,6.9c6.3,6.2,12.1,12.9,18.8,18.6s5.8,11.2,5.9,17.5c.4,27,7.8,51.7,23.1,74s34.3,35.7,57.8,45.5a104,104,0,0,0,46.4,7.6c4.9-.3,9.7-1.7,14.6-2a7,7,0,0,1,5.3,2c10.5,13,20.6,26.4,31.1,39.4,4.5,5.6,9.6,10.8,14.9,16.6,7.8-9.1,15.6-17.6,22.8-26.5s15.4-20.3,23.2-30.3a5.2,5.2,0,0,1,4-1.5c8.1.7,16.2,2.1,24.3,2.4,14,.5,27.5-2.8,40.3-8.4a136.6,136.6,0,0,0,41.1-27.5c17.4-17,28.1-37.7,33.4-61.1,2.4-11,3.1-22.4,3.9-33.7.4-5.6,1.6-9.6,6.3-13.5,6.9-5.7,12.6-12.9,18.9-19.4l4.9-5.4Z" fill="#fff"/><path d="M285.4,218.8c5.5-6.3,10.2-12.7,15.9-18,7.9-7.2,16.1-14.3,24.9-20.1,18.2-11.9,36.5-23.8,55.6-34.1,12.4-6.7,26.5-10.4,39.7-15.7,22.2-8.9,43.8-18.9,62.7-33.8,13.2-10.4,26.3-21.2,37.9-33.2s22.1-26.4,33.1-39.8l2.5-3.2,1.2.5c-2.3,7.4-4,15.1-6.9,22.2-6.4,15.6-12.8,31.2-20.3,46.2A268.3,268.3,0,0,1,499,140.1c-14.5,17.6-30.6,33.3-50.2,44.9-10.6,6.3-22,11.3-33.1,16.9-14.2,7.1-28.7,13.7-42.6,21.3-11.8,6.5-23.1,14-34.4,21.4a224.1,224.1,0,0,0-39.4,32.8c-4.7,5-8.7,10.6-13.1,15.9a4.4,4.4,0,0,1-1.1.8c-7.3-8-14.2-15.9-21.7-23.4-14.9-15-32.2-27.1-50.3-37.8-14.1-8.3-28.5-16.1-43.1-23.6-10.7-5.5-21.9-10.1-32.9-15.2-15.6-7.2-29.2-17.4-42.1-28.6-16.5-14.3-29.9-31.1-41.7-49.2a339,339,0,0,1-39-84c-1.1-3.5-1.9-7-2.8-10.5,0-.2.3-.4.8-1,4.7,6.2,9.2,12.5,14.1,18.5s11.7,14,17.8,20.8a280.8,280.8,0,0,0,54.8,46.1,258.6,258.6,0,0,0,58.7,28.1c21.7,7.3,41.7,17.6,60.7,30.1,11.6,7.6,23.6,14.5,34.5,23,9.2,7.1,17,16,25.4,24.2C280.6,213.7,282.7,216,285.4,218.8Z" fill="#fff"/><path d="M478.5,91c-6.5,8.3-15.4,12.9-24.6,16.4-26.1,10-52.3,19.6-77,32.9-5.7,3.1-10.8,3.8-17.1-.3a127.6,127.6,0,0,0-49.8-19.5c-12.1-1.9-24.4-3.7-36.8-1.3-9.8,1.9-19.7,3.2-29.4,5.5-13.2,3.2-25.1,9.7-36.5,17-3.4,2.2-6.4,2.4-9.9.6-25.4-13.5-52.1-24-79.1-34-8.5-3.2-16.1-8.8-23.9-13.7-2.9-1.8-2.8-4.5.2-6.5,12.5-8.4,24.7-17.3,37.6-25.2,21.7-13.1,44.6-23.7,69.1-30.2,15.4-4.1,31.2-7.8,47-9.5a404.4,404.4,0,0,1,57-2c20.2.7,40,4.6,59.6,10.1a274.4,274.4,0,0,1,63.2,26C445,67,460.7,78.5,476.9,89.1A10.3,10.3,0,0,1,478.5,91Z" fill="#fff"/><path d="M215.9,148.9c46-33.2,100.5-27.7,138.7-.1-9.9,7.4-20.1,14.5-29.6,22.3-12.3,10-24.2,20.5-35.9,31.1-2.9,2.6-4.4,3.1-7.4.1-17-17.5-36.5-32-56.3-46.1C222.2,153.8,219.1,151.4,215.9,148.9Z" fill="#fff"/><path d="M304.7,279l11.9-11c13.7,4.5,26.8,9.4,40.1,13,17.6,4.7,34.8,3.9,50.3-7.1,11.9-8.4,18.8-20.4,22.5-34,2.2-8.2,2.9-16.9,4.1-25.4.6-4.1.7-8.3,1-12.4.1-.8.1-1.9.6-2.2l18.9-12.2c-.5,8.7-.2,15.6-1.3,22.3-1.8,11.3-3.6,22.6-6.8,33.5-8,27-23.9,47.2-53,53.2a90.1,90.1,0,0,1-42-.9c-14.4-3.9-28.4-9.6-42.6-14.6A23.6,23.6,0,0,1,304.7,279Z" fill="#fff"/><path d="M265.9,279c-18.4,8.9-36.5,15.1-56,17.3-15.9,1.8-31.5,1.5-46.6-4.8-13-5.3-22.6-14.5-29.9-26a91.7,91.7,0,0,1-13.9-40.1c-1.3-12.1-2.4-24.2-3.7-37.6,7,4.2,12.9,7.4,18.5,11.2,1.2.9,1.5,3.7,1.6,5.6.3,17.4,2.7,34.3,10.9,49.9s21.3,25.8,39.8,28.2c15.9,2.1,30.6-2.1,45.2-6.9,6.1-2,12-5.1,18.1-7.2a7,7,0,0,1,5.6,1C259.1,272.3,262.2,275.6,265.9,279Z" fill="#fff"/><path d="M243.4,259.4c-16.2,8.7-32.6,14.5-50.2,14.2-23.7-.3-37.2-11.2-43.3-34.1-2.9-10.7-3-22.1-4.3-33.2l1.6-.8c7,3.6,14.2,6.9,21,10.9,1.3.8,1.7,3.9,1.7,6,.4,10.4,3.2,19.7,11.2,27.1s15,7.8,23.6,6.4,14.9-4.2,22.4-6c1.6-.4,3.8.4,5.3,1.4C236,253.7,239.4,256.5,243.4,259.4Z" fill="#fff"/><path d="M326.9,259.2c4.4-3.1,8-6.4,12.2-8.4,2.2-1,5.5-.2,8.2.4,6.5,1.5,12.7,4,19.3,4.9,14.9,2.1,28.1-6.7,31.9-21.1,1.2-4.7,1.2-9.8,2.1-14.6.3-1.7,1.2-4,2.5-4.7,6.5-3.6,13.3-6.7,20.5-10.2.7,14.3-.4,27.7-5.5,40.7-8.6,21.8-25.6,28.4-45.4,27.6C359.2,273.2,341.8,267.3,326.9,259.2Z" fill="#fff"/><path d="M285.2,361c-14.1-20-29.9-38-39.6-60.1l1-.9c3.6,2.1,7.4,4.2,10.9,6.4,8.4,5.4,16.8,10.8,25.1,16.4,2.3,1.5,3.8.9,5.8-.4,11.7-7.6,23.4-15.1,35.8-22.1C314.4,322.3,299.7,341,285.2,361Z" fill="#fff"/></svg>